<svg width="16" height="16" viewBox="0 0 16 16" fill="none" xmlns="http://www.w3.org/2000/svg">
<path d="M5.8377 9.67542H3.3877V12.1254H5.8377V9.67542Z" fill="#E60094"/>
<path d="M9.2249 13.0632H6.7749V15.5132H9.2249V13.0632Z" fill="#E60094"/>
<path d="M2.45 13.0632H0V15.5132H2.45V13.0632Z" fill="#E60094"/>
<path d="M9.2249 9.67542H6.7749V12.1254H9.2249V9.67542Z" fill="#E60094"/>
<path d="M5.8377 6.28833H3.3877V8.73832H5.8377V6.28833Z" fill="#E60094"/>
<path d="M2.45 9.67542H0V12.1254H2.45V9.67542Z" fill="#E60094"/>
<path d="M5.8377 13.0632H3.3877V15.5132H5.8377V13.0632Z" fill="#E60094"/>
<path d="M2.45 6.28833H0V8.73832H2.45V6.28833Z" fill="#E60094"/>
<path d="M9.2249 6.28833H6.7749V8.73832H9.2249V6.28833Z" fill="#E60094"/>
<path d="M15.9998 6.28833H13.5498V8.73832H15.9998V6.28833Z" fill="#E60094"/>
<path d="M12.3713 1.61084V2.73496H11.4338V1.61084H4.56622V2.73496H3.62872V1.61084H0V5.35127H16V1.61084H12.3713Z" fill="#E60094"/>
<path d="M12.6126 13.0632H10.1626V15.5132H12.6126V13.0632Z" fill="#E60094"/>
<path d="M15.9998 9.67542H13.5498V12.1254H15.9998V9.67542Z" fill="#E60094"/>
<path d="M15.9998 13.0632H13.5498V15.5132H15.9998V13.0632Z" fill="#E60094"/>
<path d="M12.6126 6.28833H10.1626V8.73832H12.6126V6.28833Z" fill="#E60094"/>
<path d="M12.6126 9.67542H10.1626V12.1254H12.6126V9.67542Z" fill="#E60094"/>
<path d="M4.56591 0.486328H3.62842V1.61045H4.56591V0.486328Z" fill="#E60094"/>
<path d="M12.3716 0.486328H11.4341V1.61045H12.3716V0.486328Z" fill="#E60094"/>
</svg>
