<svg width="64" height="64" viewBox="0 0 64 64" fill="none" xmlns="http://www.w3.org/2000/svg">
<path d="M21.2526 55.8422C21.0549 55.8422 20.8583 55.7908 20.6812 55.6891L9.93373 49.4834C9.57945 49.2788 9.3623 48.9017 9.3623 48.4937V36.0845C9.3623 35.6765 9.57945 35.2983 9.93373 35.0948L20.6812 28.8891C21.0354 28.6845 21.4697 28.6845 21.824 28.8891L30.576 33.9417L29.4332 35.9211L21.2526 31.1988L11.648 36.744V47.8342L21.2526 53.3805L30.8572 47.8342V38.144H33.1429V48.4937C33.1429 48.9017 32.9257 49.28 32.5714 49.4834L21.824 55.6891C21.6469 55.7908 21.4503 55.8422 21.2526 55.8422Z" fill="#E60094"/>
<path d="M37.6339 52.8897C37.4396 52.8897 37.2431 52.8405 37.0636 52.7365L31.6156 49.5914C31.0682 49.276 30.8819 48.5765 31.1974 48.0302C31.5128 47.484 32.2099 47.2954 32.7585 47.612L38.2065 50.7571C38.7539 51.0725 38.9414 51.772 38.6248 52.3182C38.4122 52.6851 38.0282 52.8897 37.6339 52.8897Z" fill="#E60094"/>
<path d="M44.9776 54.5554C44.5822 54.5554 44.1982 54.3508 43.9868 53.984C43.6713 53.4365 43.8588 52.7382 44.4051 52.4228L52.3525 47.8342V36.744L42.7479 31.1988L38.0942 33.8857C37.5479 34.2 36.8485 34.0137 36.533 33.4674C36.2176 32.9211 36.4051 32.2217 36.9513 31.9063L42.1765 28.8891C42.5296 28.6845 42.9662 28.6845 43.3193 28.8891L54.0668 35.0948C54.421 35.2994 54.6382 35.6765 54.6382 36.0845V48.4937C54.6382 48.9017 54.421 49.28 54.0668 49.4834L45.5479 54.4022C45.3685 54.5062 45.1719 54.5554 44.9776 54.5554Z" fill="#E60094"/>
<path d="M32.0003 39.2878C30.1409 39.2878 28.6289 37.7758 28.6289 35.9164C28.6289 34.057 30.1409 32.545 32.0003 32.545C33.8598 32.545 35.3718 34.057 35.3718 35.9164C35.3718 37.7758 33.8598 39.2878 32.0003 39.2878ZM32.0003 34.8307C31.4015 34.8307 30.9146 35.3175 30.9146 35.9164C30.9146 36.5153 31.4015 37.0021 32.0003 37.0021C32.5992 37.0021 33.0861 36.5153 33.0861 35.9164C33.0861 35.3175 32.5992 34.8307 32.0003 34.8307Z" fill="#E60094"/>
<path d="M42.7484 58.0717C40.889 58.0717 39.377 56.5597 39.377 54.7003C39.377 52.842 40.889 51.33 42.7484 51.33C44.6078 51.33 46.1198 52.842 46.1198 54.7003C46.1198 56.5586 44.6078 58.0717 42.7484 58.0717ZM42.7484 53.6146C42.1495 53.6146 41.6627 54.1015 41.6627 54.6992C41.6627 55.298 42.1495 55.7849 42.7484 55.7849C43.3472 55.7849 43.8341 55.298 43.8341 54.6992C43.8341 54.1015 43.3484 53.6146 42.7484 53.6146Z" fill="#E60094"/>
<path d="M43.8909 29.8918H41.6052V18.142L32.0006 12.5958L22.3961 18.1409V29.8918H20.1104V17.4815C20.1104 17.0735 20.3275 16.6952 20.6818 16.4918L31.4292 10.286C31.7835 10.0815 32.2178 10.0815 32.5721 10.286L43.3195 16.4918C43.6738 16.6963 43.8909 17.0735 43.8909 17.4815V29.8918Z" fill="#E60094"/>
<path d="M32.0003 12.1207C31.3694 12.1207 30.8574 11.6087 30.8574 10.9779V7.0716C30.8574 6.44074 31.3694 5.92874 32.0003 5.92874C32.6311 5.92874 33.1431 6.44074 33.1431 7.0716V10.9779C33.1431 11.6087 32.6311 12.1207 32.0003 12.1207Z" fill="#E60094"/>
<path d="M18.1807 14.3763L21.8228 16.4792L20.68 18.4586L17.0378 16.3558L18.1807 14.3763Z" fill="#E60094"/>
<path d="M10.0633 36.9287C9.8702 36.9287 9.67363 36.8796 9.49305 36.7756L6.21305 34.883C5.66677 34.5676 5.47934 33.8681 5.79477 33.3219C6.1102 32.7756 6.8062 32.5859 7.35591 32.9036L10.6359 34.7961C11.1822 35.1116 11.3696 35.811 11.0542 36.3573C10.8428 36.7241 10.4576 36.9287 10.0633 36.9287Z" fill="#E60094"/>
<path d="M15.8402 17.3059C13.9807 17.3059 12.4688 15.7939 12.4688 13.9345C12.4688 12.0751 13.9807 10.5631 15.8402 10.5631C17.6996 10.5631 19.2116 12.0751 19.2116 13.9345C19.2116 15.7939 17.6996 17.3059 15.8402 17.3059ZM15.8402 12.8488C15.2413 12.8488 14.7545 13.3357 14.7545 13.9345C14.7545 14.5322 15.2413 15.0202 15.8402 15.0202C16.439 15.0202 16.9259 14.5334 16.9259 13.9345C16.9259 13.3357 16.439 12.8488 15.8402 12.8488Z" fill="#E60094"/>
<path d="M9.93945 47.5128L11.0823 49.4922L7.43917 51.5957L6.29631 49.6162L9.93945 47.5128Z" fill="#E60094"/>
<path d="M5.09311 55.4053C3.23482 55.4053 1.72168 53.8933 1.72168 52.0339C1.72168 50.1756 3.23368 48.6636 5.09311 48.6636C6.95254 48.6636 8.46454 50.1756 8.46454 52.0339C8.46454 53.8933 6.95254 55.4053 5.09311 55.4053ZM5.09311 50.9493C4.4954 50.9493 4.0074 51.4361 4.0074 52.0339C4.0074 52.6327 4.49425 53.1196 5.09311 53.1196C5.69197 53.1196 6.17883 52.6327 6.17883 52.0339C6.17883 51.4361 5.69082 50.9493 5.09311 50.9493Z" fill="#E60094"/>
<path d="M54.084 47.5032L57.7261 49.6061L56.5833 51.5855L52.9411 49.4826L54.084 47.5032Z" fill="#E60094"/>
<path d="M58.9084 55.4053C57.0501 55.4053 55.5381 53.8933 55.5381 52.0339C55.5381 50.1756 57.0501 48.6636 58.9084 48.6636C60.7678 48.6636 62.2798 50.1756 62.2798 52.0339C62.2798 53.8933 60.7678 55.4053 58.9084 55.4053ZM58.9084 50.9493C58.3106 50.9493 57.8238 51.4361 57.8238 52.0339C57.8238 52.6327 58.3106 53.1196 58.9084 53.1196C59.5072 53.1196 59.9941 52.6327 59.9941 52.0339C59.9941 51.4361 59.5072 50.9493 58.9084 50.9493Z" fill="#E60094"/>
<path d="M45.8242 14.3746L46.9671 16.354L43.3249 18.4569L42.1821 16.4775L45.8242 14.3746Z" fill="#E60094"/>
<path d="M53.8462 36.937C53.4507 36.937 53.0667 36.7313 52.8553 36.3655C52.5399 35.8181 52.7273 35.1198 53.2736 34.8044L56.5662 32.9038C57.1102 32.5884 57.8108 32.7758 58.1273 33.3221C58.4428 33.8696 58.2553 34.5678 57.709 34.8833L54.4165 36.7838C54.237 36.8878 54.0405 36.937 53.8462 36.937Z" fill="#E60094"/>
<path d="M48.1615 17.3059C46.302 17.3059 44.79 15.7939 44.79 13.9345C44.79 12.0751 46.302 10.5631 48.1615 10.5631C50.0197 10.5631 51.5317 12.0751 51.5317 13.9345C51.5317 15.7939 50.0197 17.3059 48.1615 17.3059ZM48.1615 12.8488C47.5626 12.8488 47.0757 13.3357 47.0757 13.9345C47.0757 14.5322 47.5626 15.0202 48.1615 15.0202C48.7592 15.0202 49.246 14.5334 49.246 13.9345C49.246 13.3357 48.7592 12.8488 48.1615 12.8488Z" fill="#E60094"/>
<path d="M26.3538 21.076C25.9561 21.076 25.5698 20.868 25.3595 20.4988C25.0475 19.9503 25.2395 19.252 25.7881 18.94L32.2201 15.2817C32.7687 14.9697 33.4658 15.1617 33.7789 15.7103C34.0909 16.2588 33.8989 16.9571 33.3504 17.2691L26.9195 20.9274C26.7389 21.028 26.5447 21.076 26.3538 21.076Z" fill="#E60094"/>
<path d="M15.6058 39.6782C15.208 39.6782 14.8218 39.4702 14.6115 39.0999C14.2995 38.5525 14.4915 37.8531 15.04 37.5422L21.472 33.8839C22.0217 33.5719 22.7189 33.7651 23.0309 34.3125C23.3429 34.8599 23.1509 35.5594 22.6023 35.8702L16.1692 39.5285C15.992 39.6302 15.7978 39.6782 15.6058 39.6782Z" fill="#E60094"/>
<path d="M37.1009 39.6782C36.7032 39.6782 36.3169 39.4702 36.1066 39.0999C35.7946 38.5525 35.9866 37.8542 36.5352 37.5422L42.9671 33.8839C43.5146 33.5719 44.2117 33.7628 44.5249 34.3125C44.8369 34.8599 44.6449 35.5582 44.0963 35.8702L37.6643 39.5285C37.486 39.6302 37.2929 39.6782 37.1009 39.6782Z" fill="#E60094"/>
</svg>
