<svg width="64" height="64" viewBox="0 0 64 64" fill="none" xmlns="http://www.w3.org/2000/svg">
<path d="M51 36C50.7348 36 50.4804 35.8946 50.2929 35.7071C50.1054 35.5196 50 35.2652 50 35V15C50 14.7348 50.1054 14.4804 50.2929 14.2929C50.4804 14.1054 50.7348 14 51 14C51.2652 14 51.5196 14.1054 51.7071 14.2929C51.8946 14.4804 52 14.7348 52 15V35C52 35.2652 51.8946 35.5196 51.7071 35.7071C51.5196 35.8946 51.2652 36 51 36Z" fill="#E60094"/>
<path d="M13 36C12.7348 36 12.4804 35.8946 12.2929 35.7071C12.1054 35.5196 12 35.2652 12 35V5C12 4.73478 12.1054 4.48043 12.2929 4.29289C12.4804 4.10536 12.7348 4 13 4H41C41.2652 4 41.5196 4.10536 41.7071 4.29289C41.8946 4.48043 42 4.73478 42 5C42 5.26522 41.8946 5.51957 41.7071 5.70711C41.5196 5.89464 41.2652 6 41 6H14V35C14 35.2652 13.8946 35.5196 13.7071 35.7071C13.5196 35.8946 13.2652 36 13 36Z" fill="#E60094"/>
<path d="M51 60H13C12.7348 60 12.4804 59.8946 12.2929 59.7071C12.1054 59.5196 12 59.2652 12 59V51C12 50.7348 12.1054 50.4804 12.2929 50.2929C12.4804 50.1054 12.7348 50 13 50C13.2652 50 13.5196 50.1054 13.7071 50.2929C13.8946 50.4804 14 50.7348 14 51V58H50V51C50 50.7348 50.1054 50.4804 50.2929 50.2929C50.4804 50.1054 50.7348 50 51 50C51.2652 50 51.5196 50.1054 51.7071 50.2929C51.8946 50.4804 52 50.7348 52 51V59C52 59.2652 51.8946 59.5196 51.7071 59.7071C51.5196 59.8946 51.2652 60 51 60Z" fill="#E60094"/>
<path d="M51 15.9998H41C40.7348 15.9998 40.4804 15.8944 40.2929 15.7069C40.1054 15.5194 40 15.265 40 14.9998V4.99979C40 4.80204 40.0587 4.60874 40.1686 4.44433C40.2785 4.27992 40.4346 4.15178 40.6173 4.07611C40.8 4.00044 41.0011 3.98064 41.195 4.0192C41.389 4.05777 41.5671 4.15298 41.707 4.29279L51.707 14.2928C51.8468 14.4326 51.942 14.6108 51.9806 14.8048C52.0192 14.9987 51.9994 15.1997 51.9237 15.3824C51.848 15.5651 51.7199 15.7213 51.5555 15.8312C51.3911 15.9411 51.1978 15.9998 51 15.9998ZM42 13.9998H48.5859L42 7.41389V13.9998Z" fill="#E60094"/>
<path d="M31 48H26C25.7348 48 25.4804 47.8946 25.2929 47.7071C25.1054 47.5196 25 47.2652 25 47C25 46.7348 25.1054 46.4804 25.2929 46.2929C25.4804 46.1054 25.7348 46 26 46H31V44H27C26.4698 43.9994 25.9614 43.7885 25.5865 43.4135C25.2115 43.0386 25.0006 42.5302 25 42V40C25.0006 39.4698 25.2115 38.9614 25.5865 38.5865C25.9614 38.2115 26.4698 38.0006 27 38H32C32.2652 38 32.5196 38.1054 32.7071 38.2929C32.8946 38.4804 33 38.7348 33 39C33 39.2652 32.8946 39.5196 32.7071 39.7071C32.5196 39.8946 32.2652 40 32 40H27V42H31C31.5302 42.0006 32.0386 42.2115 32.4135 42.5865C32.7885 42.9614 32.9994 43.4698 33 44V46C32.9994 46.5302 32.7885 47.0386 32.4135 47.4135C32.0386 47.7885 31.5302 47.9994 31 48Z" fill="#E60094"/>
<path d="M40 48H38C37.2046 47.9991 36.4421 47.6828 35.8796 47.1204C35.3172 46.5579 35.0009 45.7954 35 45V41C35.0009 40.2046 35.3172 39.4421 35.8796 38.8796C36.4421 38.3172 37.2046 38.0009 38 38H40C40.7954 38.0009 41.5579 38.3172 42.1204 38.8796C42.6828 39.4421 42.9991 40.2046 43 41V45C42.9991 45.7954 42.6828 46.5579 42.1204 47.1204C41.5579 47.6828 40.7954 47.9991 40 48ZM38 40C37.7349 40.0002 37.4806 40.1057 37.2932 40.2932C37.1057 40.4806 37.0002 40.7349 37 41V45C37.0002 45.2651 37.1057 45.5194 37.2932 45.7068C37.4806 45.8943 37.7349 45.9998 38 46H40C40.2651 45.9998 40.5194 45.8943 40.7068 45.7068C40.8943 45.5194 40.9998 45.2651 41 45V41C40.9998 40.7349 40.8943 40.4806 40.7068 40.2932C40.5194 40.1057 40.2651 40.0002 40 40H38Z" fill="#E60094"/>
<path d="M55 52H9C8.73478 52 8.48043 51.8946 8.29289 51.7071C8.10536 51.5196 8 51.2652 8 51V35C8 34.7348 8.10536 34.4804 8.29289 34.2929C8.48043 34.1054 8.73478 34 9 34H55C55.2652 34 55.5196 34.1054 55.7071 34.2929C55.8946 34.4804 56 34.7348 56 35V51C56 51.2652 55.8946 51.5196 55.7071 51.7071C55.5196 51.8946 55.2652 52 55 52ZM10 50H54V36H10V50Z" fill="#E60094"/>
<path d="M22 48C21.7348 48 21.4804 47.8946 21.2929 47.7071C21.1054 47.5196 21 47.2652 21 47V39C21 38.7348 21.1054 38.4804 21.2929 38.2929C21.4804 38.1054 21.7348 38 22 38C22.2652 38 22.5196 38.1054 22.7071 38.2929C22.8946 38.4804 23 38.7348 23 39V47C23 47.2652 22.8946 47.5196 22.7071 47.7071C22.5196 47.8946 22.2652 48 22 48Z" fill="#E60094"/>
<path d="M45 22H19C18.7348 22 18.4804 21.8946 18.2929 21.7071C18.1054 21.5196 18 21.2652 18 21C18 20.7348 18.1054 20.4804 18.2929 20.2929C18.4804 20.1054 18.7348 20 19 20H45C45.2652 20 45.5196 20.1054 45.7071 20.2929C45.8946 20.4804 46 20.7348 46 21C46 21.2652 45.8946 21.5196 45.7071 21.7071C45.5196 21.8946 45.2652 22 45 22Z" fill="#E60094"/>
<path d="M45 28H19C18.7348 28 18.4804 27.8946 18.2929 27.7071C18.1054 27.5196 18 27.2652 18 27C18 26.7348 18.1054 26.4804 18.2929 26.2929C18.4804 26.1054 18.7348 26 19 26H45C45.2652 26 45.5196 26.1054 45.7071 26.2929C45.8946 26.4804 46 26.7348 46 27C46 27.2652 45.8946 27.5196 45.7071 27.7071C45.5196 27.8946 45.2652 28 45 28Z" fill="#E60094"/>
</svg>
