<svg width="104" height="104" viewBox="0 0 104 104" fill="none" xmlns="http://www.w3.org/2000/svg">
<g filter="url(#filter0_d)">
<circle cx="52" cy="48" r="22" fill="white"/>
</g>
<path d="M52.0031 40H51.9969C48.6212 40 45.875 42.7462 45.875 46.1219C45.875 47.4334 46.3072 48.7344 47.0921 49.7852L51.7338 56H52.2662L56.9079 49.7852C57.6927 48.7344 58.125 47.4334 58.125 46.1219C58.125 42.7462 55.3787 40 52.0031 40ZM52 47.8438C50.9661 47.8438 50.125 47.0026 50.125 45.9688C50.125 44.9349 50.9661 44.0938 52 44.0938C53.0339 44.0938 53.875 44.9349 53.875 45.9688C53.875 47.0026 53.0339 47.8438 52 47.8438Z" fill="#4012A6"/>
<defs>
<filter id="filter0_d" x="0" y="0" width="104" height="104" filterUnits="userSpaceOnUse" color-interpolation-filters="sRGB">
<feFlood flood-opacity="0" result="BackgroundImageFix"/>
<feColorMatrix in="SourceAlpha" type="matrix" values="0 0 0 0 0 0 0 0 0 0 0 0 0 0 0 0 0 0 127 0"/>
<feOffset dy="4"/>
<feGaussianBlur stdDeviation="15"/>
<feColorMatrix type="matrix" values="0 0 0 0 0.416667 0 0 0 0 0.448232 0 0 0 0 0.625 0 0 0 0.1 0"/>
<feBlend mode="normal" in2="BackgroundImageFix" result="effect1_dropShadow"/>
<feBlend mode="normal" in="SourceGraphic" in2="effect1_dropShadow" result="shape"/>
</filter>
</defs>
</svg>
