<svg width="44" height="44" viewBox="0 0 44 44" fill="none" xmlns="http://www.w3.org/2000/svg">
<path fill-rule="evenodd" clip-rule="evenodd" d="M22 44C34.1503 44 44 34.1503 44 22C44 9.84974 34.1503 0 22 0C9.84974 0 0 9.84974 0 22C0 34.1503 9.84974 44 22 44ZM15.875 20.1219C15.875 16.7463 18.6213 14 21.9969 14H22.0031C25.3787 14 28.125 16.7463 28.125 20.1219C28.125 21.4334 27.6927 22.7344 26.9079 23.7852L22.2662 30H21.7338L17.0921 23.7852C16.3072 22.7344 15.875 21.4334 15.875 20.1219ZM20.125 19.9688C20.125 21.0026 20.9661 21.8438 22 21.8438C23.0339 21.8438 23.875 21.0026 23.875 19.9688C23.875 18.9349 23.0339 18.0938 22 18.0938C20.9661 18.0938 20.125 18.9349 20.125 19.9688Z" fill="white"/>
</svg>
