<svg width="85" height="72" viewBox="0 0 85 72" fill="none" xmlns="http://www.w3.org/2000/svg" style="">
<path d="M42.2504 1V23.0034H57.5C58.4023 23.5794 59.8017 24.7861 60.6103 25.5576C77.0401 41.2388 66.2962 70.5 42.2339 70.5C31.6665 70.5 22.1339 64.202 18.0178 54.5057C17.552 53.4085 17.159 52.2732 16.8452 51.1056" stroke="white" stroke-width="2" stroke-miterlimit="22.9256" class="WrVDpmGz_0"></path>
<path d="M42.2499 70.5V53.2103H27.1986C23.5362 53.2103 20.0402 52.4505 16.8672 51.0827C7.28595 46.9522 1 37.5234 1 27.1052C1 12.7473 12.7898 1 27.1986 1H57.3011C71.7103 1 83.5 12.7473 83.5 27.1052C83.5 37.8111 76.9448 47.0659 67.6365 51.0808" stroke="white" stroke-width="2" stroke-miterlimit="22.9256" class="WrVDpmGz_1"></path>
<path d="M57.0276 23.0032V31.1032H46.3136V53.2101H42.2493M38.1849 53.2101V31.1032H27.4712V23.0032H42.2493" stroke="white" stroke-width="2" stroke-miterlimit="22.9256" class="WrVDpmGz_2"></path>
<style data-made-with="vivus-instant">.WrVDpmGz_0{stroke-dasharray:138 140;stroke-dashoffset:139;animation:WrVDpmGz_draw 1333ms linear 0ms forwards;}.WrVDpmGz_1{stroke-dasharray:217 219;stroke-dashoffset:218;animation:WrVDpmGz_draw 1333ms linear 333ms forwards;}.WrVDpmGz_2{stroke-dasharray:101 103;stroke-dashoffset:102;animation:WrVDpmGz_draw 1333ms linear 666ms forwards;}@keyframes WrVDpmGz_draw{100%{stroke-dashoffset:0;}}@keyframes WrVDpmGz_fade{0%{stroke-opacity:1;}93.54838709677419%{stroke-opacity:1;}100%{stroke-opacity:0;}}</style></svg>
