<svg width="215" height="47" viewBox="0 0 215 47" fill="none" xmlns="http://www.w3.org/2000/svg">
<path d="M8.34873 2.73615H5.1537V10.9815H3.37716V2.73615H0.195901V1.19889H8.34873V2.73615Z" fill="white"/>
<path d="M16.5211 3.4349C17.2556 3.4349 17.9121 3.59795 18.4905 3.92403C19.0689 4.2408 19.5234 4.69266 19.8539 5.27961C20.1844 5.85725 20.3497 6.51408 20.3497 7.2501C20.3497 7.98612 20.1844 8.64761 19.8539 9.23456C19.5234 9.8122 19.0689 10.2641 18.4905 10.5901C17.9121 10.9162 17.2556 11.0793 16.5211 11.0793C15.8785 11.0793 15.2909 10.9535 14.7584 10.7019C14.2259 10.4411 13.7852 10.0777 13.4363 9.61189C13.0874 9.13674 12.8625 8.59637 12.7615 7.99078H11.522V10.9815H9.80057V3.51875H11.522V6.4116H12.789C12.8992 5.82464 13.1287 5.30756 13.4776 4.86036C13.8265 4.40384 14.2626 4.05446 14.7859 3.81223C15.3092 3.56068 15.8876 3.4349 16.5211 3.4349ZM16.5211 9.59792C16.9251 9.59792 17.2878 9.50475 17.6091 9.31841C17.9304 9.12276 18.1829 8.84792 18.3666 8.49388C18.5502 8.13053 18.642 7.71594 18.642 7.2501C18.642 6.54203 18.44 5.97837 18.036 5.55912C17.6412 5.13055 17.1363 4.91626 16.5211 4.91626C15.906 4.91626 15.401 5.13055 15.0063 5.55912C14.6115 5.97837 14.4141 6.54203 14.4141 7.2501C14.4141 7.95817 14.6115 8.52649 15.0063 8.95506C15.4102 9.38363 15.9152 9.59792 16.5211 9.59792Z" fill="white"/>
<path d="M29.5446 10.9815V6.03427L27.0657 10.1988H26.3221L23.8845 6.02029V10.9815H22.3145V3.51875H24.1186L26.7352 8.18643L29.4758 3.51875H31.0871L31.1008 10.9815H29.5446Z" fill="white"/>
<path d="M40.5711 7.29203C40.5711 7.41314 40.5619 7.5855 40.5436 7.8091H34.7732C34.8742 8.35879 35.1359 8.79668 35.5582 9.12276C35.9897 9.43953 36.5222 9.59792 37.1557 9.59792C37.9637 9.59792 38.6293 9.32773 39.1526 8.78736L40.0753 9.86344C39.7448 10.2641 39.3271 10.5669 38.8221 10.7718C38.3172 10.9768 37.7479 11.0793 37.1144 11.0793C36.3065 11.0793 35.595 10.9162 34.9798 10.5901C34.3647 10.2641 33.8873 9.8122 33.5476 9.23456C33.217 8.64761 33.0518 7.98612 33.0518 7.2501C33.0518 6.5234 33.2125 5.87123 33.5338 5.29359C33.8643 4.70664 34.3188 4.25012 34.8972 3.92403C35.4756 3.59795 36.1275 3.4349 36.8528 3.4349C37.5689 3.4349 38.207 3.59795 38.767 3.92403C39.3363 4.2408 39.777 4.69266 40.0891 5.27961C40.4104 5.85725 40.5711 6.52806 40.5711 7.29203ZM36.8528 4.83241C36.3019 4.83241 35.8337 5.00011 35.4481 5.33551C35.0716 5.6616 34.8421 6.09949 34.7595 6.64917H38.9323C38.8588 6.1088 38.6339 5.67092 38.2575 5.33551C37.8811 5.00011 37.4128 4.83241 36.8528 4.83241Z" fill="white"/>
<path d="M42.7294 3.51875H44.4509V6.55135H48.1554V3.51875H49.8769V10.9815H48.1554V8.03271H44.4509V10.9815H42.7294V3.51875Z" fill="white"/>
<path d="M55.8059 11.0793C55.0439 11.0793 54.3599 10.9162 53.7539 10.5901C53.148 10.2641 52.6752 9.8122 52.3355 9.23456C51.9958 8.64761 51.8259 7.98612 51.8259 7.2501C51.8259 6.51408 51.9958 5.85725 52.3355 5.27961C52.6752 4.70198 53.1434 4.25012 53.7402 3.92403C54.3461 3.59795 55.0347 3.4349 55.8059 3.4349C56.5312 3.4349 57.1647 3.58397 57.7064 3.88211C58.2573 4.18024 58.6704 4.60881 58.9459 5.16781L57.6238 5.95042C57.4126 5.6057 57.1464 5.34949 56.825 5.18179C56.5129 5.00477 56.1686 4.91626 55.7922 4.91626C55.1495 4.91626 54.617 5.13055 54.1946 5.55912C53.7723 5.97837 53.5611 6.54203 53.5611 7.2501C53.5611 7.95817 53.7677 8.52649 54.1809 8.95506C54.6032 9.37432 55.1403 9.58394 55.7922 9.58394C56.1686 9.58394 56.5129 9.50009 56.825 9.33239C57.1464 9.15537 57.4126 8.8945 57.6238 8.54978L58.9459 9.33239C58.6613 9.89139 58.2435 10.3246 57.6926 10.6321C57.151 10.9302 56.5221 11.0793 55.8059 11.0793Z" fill="white"/>
<path d="M63.7942 7.99078H62.4584V10.9815H60.7369V3.51875H62.4584V6.53737H63.8356L66.0115 3.51875H67.8569L65.1852 7.11035L68.0359 10.9815H66.0115L63.7942 7.99078Z" fill="white"/>
<path d="M69.5255 3.51875H71.247V8.43798L75.3096 3.51875H76.8796V10.9815H75.1581V6.06222L71.1093 10.9815H69.5255V3.51875Z" fill="white"/>
<path d="M79.4707 3.51875H81.1922V8.43798L85.2548 3.51875H86.8248V10.9815H85.1033V6.06222L81.0545 10.9815H79.4707V3.51875ZM83.0376 2.63832C82.2939 2.63832 81.7247 2.46596 81.3299 2.12124C80.9443 1.76721 80.7469 1.25479 80.7377 0.583984H81.8808C81.8899 0.919387 81.9909 1.18491 82.1837 1.38056C82.3857 1.57622 82.6657 1.67404 83.0238 1.67404C83.3727 1.67404 83.6481 1.57622 83.8501 1.38056C84.0613 1.18491 84.1714 0.919387 84.1806 0.583984H85.3512C85.342 1.25479 85.1401 1.76721 84.7453 2.12124C84.3505 2.46596 83.7813 2.63832 83.0376 2.63832Z" fill="white"/>
<path d="M2.46823 18.1686L4.74055 21.4388L7.01288 18.1686H9.10617L5.86983 22.8643L9.36784 27.9512H7.247L4.74055 24.3876L2.24788 27.9512H0.182129L3.66636 22.9341L0.402476 18.1686H2.46823Z" fill="white"/>
<path d="M10.8361 20.4885H12.5576V25.4077L16.6202 20.4885H18.1902V27.9512H16.4687V23.032L12.4199 27.9512H10.8361V20.4885Z" fill="white"/>
<path d="M28.0115 27.9512V23.004L25.5326 27.1686H24.7889L22.3513 22.99V27.9512H20.7813V20.4885H22.5854L25.202 25.1562L27.9426 20.4885H29.5539L29.5677 27.9512H28.0115Z" fill="white"/>
<path d="M32.1521 20.4885H33.8736V25.4077L37.9362 20.4885H39.5062V27.9512H37.7847V23.032L33.7358 27.9512H32.1521V20.4885Z" fill="white"/>
<path d="M45.1546 24.9605H43.8188V27.9512H42.0973V20.4885H43.8188V23.5071H45.1959L47.3718 20.4885H49.2173L46.5456 24.0801L49.3963 27.9512H47.3718L45.1546 24.9605Z" fill="white"/>
<path d="M53.9215 28.049C53.1778 28.049 52.5076 27.886 51.9108 27.5599C51.314 27.2338 50.8458 26.782 50.5061 26.2043C50.1756 25.6174 50.0103 24.9559 50.0103 24.2199C50.0103 23.4838 50.1756 22.827 50.5061 22.2494C50.8458 21.6717 51.314 21.2199 51.9108 20.8938C52.5076 20.5677 53.1778 20.4047 53.9215 20.4047C54.6743 20.4047 55.3491 20.5677 55.9459 20.8938C56.5427 21.2199 57.0063 21.6717 57.3368 22.2494C57.6765 22.827 57.8464 23.4838 57.8464 24.2199C57.8464 24.9559 57.6765 25.6174 57.3368 26.2043C57.0063 26.782 56.5427 27.2338 55.9459 27.5599C55.3491 27.886 54.6743 28.049 53.9215 28.049ZM53.9215 26.5537C54.555 26.5537 55.0783 26.3394 55.4914 25.9108C55.9046 25.4823 56.1112 24.9186 56.1112 24.2199C56.1112 23.5211 55.9046 22.9574 55.4914 22.5289C55.0783 22.1003 54.555 21.886 53.9215 21.886C53.288 21.886 52.7646 22.1003 52.3515 22.5289C51.9475 22.9574 51.7455 23.5211 51.7455 24.2199C51.7455 24.9186 51.9475 25.4823 52.3515 25.9108C52.7646 26.3394 53.288 26.5537 53.9215 26.5537Z" fill="white"/>
<path d="M59.5575 23.3394H63.3447V24.7928H59.5575V23.3394Z" fill="white"/>
<path d="M76.8086 23.0459C76.8086 24.3317 76.3679 25.3472 75.4865 26.0925C74.6051 26.8379 73.3519 27.2431 71.7268 27.3083V28.3425H70.0742V27.3083C68.4492 27.2245 67.1914 26.8146 66.3008 26.0785C65.4194 25.3425 64.9787 24.3317 64.9787 23.0459C64.9787 21.7602 65.4194 20.7494 66.3008 20.0134C67.1914 19.268 68.4492 18.8534 70.0742 18.7696V17.7773H71.7268V18.7696C73.3519 18.8534 74.6051 19.268 75.4865 20.0134C76.3679 20.7494 76.8086 21.7602 76.8086 23.0459ZM71.7268 25.8829C72.8286 25.799 73.6641 25.5195 74.2333 25.0444C74.8025 24.5599 75.0871 23.8891 75.0871 23.032C75.0871 22.1748 74.7979 21.5087 74.2195 21.0335C73.6503 20.5584 72.8194 20.2835 71.7268 20.209V25.8829ZM66.7277 23.0459C66.7277 23.8938 67.0123 24.5553 67.5816 25.0304C68.16 25.5056 68.9909 25.7897 70.0742 25.8829V20.209C67.8432 20.3767 66.7277 21.3224 66.7277 23.0459Z" fill="white"/>
<path d="M81.5119 20.4047C82.5953 20.4047 83.4216 20.6702 83.9908 21.2012C84.5693 21.723 84.8585 22.5149 84.8585 23.577V27.9512H83.2334V27.0428C83.0222 27.3689 82.7193 27.6205 82.3245 27.7975C81.9389 27.9652 81.4706 28.049 80.9198 28.049C80.3689 28.049 79.8869 27.9559 79.4737 27.7695C79.0606 27.5739 78.7392 27.3083 78.5097 26.9729C78.2894 26.6282 78.1792 26.2416 78.1792 25.813C78.1792 25.1422 78.4225 24.6065 78.9091 24.2059C79.4049 23.7959 80.1807 23.591 81.2365 23.591H83.137V23.4792C83.137 22.9574 82.9809 22.5568 82.6688 22.2773C82.3658 21.9978 81.9113 21.8581 81.3054 21.8581C80.8922 21.8581 80.4837 21.9233 80.0797 22.0537C79.6849 22.1841 79.3498 22.3658 79.0744 22.5987L78.3995 21.327C78.7851 21.0289 79.2488 20.8006 79.7905 20.6422C80.3322 20.4838 80.906 20.4047 81.5119 20.4047ZM81.2778 26.7773C81.7093 26.7773 82.0904 26.6795 82.4209 26.4838C82.7606 26.2788 82.9993 25.99 83.137 25.6174V24.7509H81.3605C80.3689 24.7509 79.8731 25.0816 79.8731 25.7431C79.8731 26.0599 79.9971 26.3115 80.2449 26.4978C80.4928 26.6841 80.8371 26.7773 81.2778 26.7773Z" fill="white"/>
<path d="M91.3405 20.4047C92.0566 20.4047 92.6947 20.563 93.2548 20.8798C93.824 21.1966 94.2693 21.6438 94.5906 22.2214C94.912 22.7991 95.0726 23.4652 95.0726 24.2199C95.0726 24.9745 94.912 25.6453 94.5906 26.2323C94.2693 26.8099 93.824 27.2571 93.2548 27.5739C92.6947 27.8906 92.0566 28.049 91.3405 28.049C90.3489 28.049 89.564 27.7136 88.9855 27.0428V30.6624H87.2641V20.4885H88.9029V21.4668C89.1875 21.1127 89.5364 20.8472 89.9496 20.6702C90.3719 20.4932 90.8355 20.4047 91.3405 20.4047ZM91.1477 26.5537C91.7812 26.5537 92.2999 26.3394 92.7039 25.9108C93.1171 25.4823 93.3236 24.9186 93.3236 24.2199C93.3236 23.5211 93.1171 22.9574 92.7039 22.5289C92.2999 22.1003 91.7812 21.886 91.1477 21.886C90.7346 21.886 90.3627 21.9838 90.0322 22.1795C89.7017 22.3658 89.44 22.636 89.2472 22.99C89.0544 23.3441 88.958 23.754 88.958 24.2199C88.958 24.6857 89.0544 25.0956 89.2472 25.4497C89.44 25.8037 89.7017 26.0785 90.0322 26.2742C90.3627 26.4605 90.7346 26.5537 91.1477 26.5537Z" fill="white"/>
<path d="M104.291 27.9512V23.004L101.813 27.1686H101.069L98.6313 22.99V27.9512H97.0614V20.4885H98.8654L101.482 25.1562L104.223 20.4885H105.834L105.848 27.9512H104.291Z" fill="white"/>
<path d="M111.173 20.4047C112.256 20.4047 113.082 20.6702 113.652 21.2012C114.23 21.723 114.519 22.5149 114.519 23.577V27.9512H112.894V27.0428C112.683 27.3689 112.38 27.6205 111.985 27.7975C111.6 27.9652 111.131 28.049 110.581 28.049C110.03 28.049 109.548 27.9559 109.134 27.7695C108.721 27.5739 108.4 27.3083 108.17 26.9729C107.95 26.6282 107.84 26.2416 107.84 25.813C107.84 25.1422 108.083 24.6065 108.57 24.2059C109.066 23.7959 109.841 23.591 110.897 23.591H112.798V23.4792C112.798 22.9574 112.642 22.5568 112.33 22.2773C112.027 21.9978 111.572 21.8581 110.966 21.8581C110.553 21.8581 110.144 21.9233 109.74 22.0537C109.346 22.1841 109.011 22.3658 108.735 22.5987L108.06 21.327C108.446 21.0289 108.91 20.8006 109.451 20.6422C109.993 20.4838 110.567 20.4047 111.173 20.4047ZM110.939 26.7773C111.37 26.7773 111.751 26.6795 112.082 26.4838C112.421 26.2788 112.66 25.99 112.798 25.6174V24.7509H111.021C110.03 24.7509 109.534 25.0816 109.534 25.7431C109.534 26.0599 109.658 26.3115 109.906 26.4978C110.154 26.6841 110.498 26.7773 110.939 26.7773Z" fill="white"/>
<path d="M124.995 26.4698V29.6701H123.384V27.9512H116.925V20.4885H118.646V26.4698H122.158V20.4885H123.88V26.4698H124.995Z" fill="white"/>
<path d="M133.689 24.2618C133.689 24.3829 133.679 24.5553 133.661 24.7789H127.891C127.992 25.3285 128.253 25.7664 128.676 26.0925C129.107 26.4093 129.64 26.5677 130.273 26.5677C131.081 26.5677 131.747 26.2975 132.27 25.7571L133.193 26.8332C132.862 27.2338 132.445 27.5366 131.94 27.7416C131.435 27.9465 130.865 28.049 130.232 28.049C129.424 28.049 128.712 27.886 128.097 27.5599C127.482 27.2338 127.005 26.782 126.665 26.2043C126.335 25.6174 126.169 24.9559 126.169 24.2199C126.169 23.4931 126.33 22.841 126.651 22.2633C126.982 21.6764 127.436 21.2199 128.015 20.8938C128.593 20.5677 129.245 20.4047 129.97 20.4047C130.686 20.4047 131.324 20.5677 131.885 20.8938C132.454 21.2105 132.894 21.6624 133.207 22.2494C133.528 22.827 133.689 23.4978 133.689 24.2618ZM129.97 21.8022C129.419 21.8022 128.951 21.9699 128.566 22.3053C128.189 22.6313 127.96 23.0692 127.877 23.6189H132.05C131.976 23.0786 131.751 22.6407 131.375 22.3053C130.999 21.9699 130.53 21.8022 129.97 21.8022Z" fill="white"/>
<path d="M141.177 24.0661C142.085 24.3456 142.54 24.9419 142.54 25.8549C142.54 26.5257 142.292 27.0428 141.796 27.4062C141.3 27.7695 140.566 27.9512 139.593 27.9512H135.847V20.4885H139.441C140.341 20.4885 141.043 20.6562 141.548 20.9916C142.053 21.327 142.306 21.8022 142.306 22.4171C142.306 22.7991 142.205 23.1298 142.003 23.4093C141.81 23.6888 141.535 23.9077 141.177 24.0661ZM137.486 23.6049H139.29C140.18 23.6049 140.626 23.2928 140.626 22.6686C140.626 22.063 140.18 21.7602 139.29 21.7602H137.486V23.6049ZM139.455 26.6795C140.401 26.6795 140.874 26.3674 140.874 25.7431C140.874 25.4171 140.763 25.1748 140.543 25.0164C140.323 24.8487 139.978 24.7649 139.51 24.7649H137.486V26.6795H139.455Z" fill="white"/>
<path d="M150.474 21.9699H147.899V27.9512H146.178V21.9699H143.589V20.4885H150.474V21.9699Z" fill="white"/>
<path d="M151.998 20.4885H153.72V25.4077L157.783 20.4885H159.353V27.9512H157.631V23.032L153.582 27.9512H151.998V20.4885Z" fill="white"/>
<path d="M168.182 20.4885V27.9512H166.461V25.0584C165.754 25.4031 165.015 25.5754 164.244 25.5754C163.298 25.5754 162.573 25.3565 162.068 24.9186C161.563 24.4714 161.31 23.7913 161.31 22.8782V20.4885H163.032V22.7664C163.032 23.2416 163.169 23.5956 163.445 23.8285C163.72 24.0615 164.11 24.1779 164.615 24.1779C165.258 24.1779 165.873 24.0382 166.461 23.7587V20.4885H168.182Z" fill="white"/>
<path d="M177.658 24.2618C177.658 24.3829 177.649 24.5553 177.631 24.7789H171.861C171.962 25.3285 172.223 25.7664 172.646 26.0925C173.077 26.4093 173.61 26.5677 174.243 26.5677C175.051 26.5677 175.717 26.2975 176.24 25.7571L177.163 26.8332C176.832 27.2338 176.414 27.5366 175.909 27.7416C175.404 27.9465 174.835 28.049 174.202 28.049C173.394 28.049 172.682 27.886 172.067 27.5599C171.452 27.2338 170.975 26.782 170.635 26.2043C170.304 25.6174 170.139 24.9559 170.139 24.2199C170.139 23.4931 170.3 22.841 170.621 22.2633C170.952 21.6764 171.406 21.2199 171.985 20.8938C172.563 20.5677 173.215 20.4047 173.94 20.4047C174.656 20.4047 175.294 20.5677 175.854 20.8938C176.424 21.2105 176.864 21.6624 177.176 22.2494C177.498 22.827 177.658 23.4978 177.658 24.2618ZM173.94 21.8022C173.389 21.8022 172.921 21.9699 172.535 22.3053C172.159 22.6313 171.929 23.0692 171.847 23.6189H176.02C175.946 23.0786 175.721 22.6407 175.345 22.3053C174.968 21.9699 174.5 21.8022 173.94 21.8022Z" fill="white"/>
<path d="M183.163 28.049C182.401 28.049 181.717 27.886 181.111 27.5599C180.505 27.2338 180.033 26.782 179.693 26.2043C179.353 25.6174 179.183 24.9559 179.183 24.2199C179.183 23.4838 179.353 22.827 179.693 22.2494C180.033 21.6717 180.501 21.2199 181.098 20.8938C181.703 20.5677 182.392 20.4047 183.163 20.4047C183.889 20.4047 184.522 20.5537 185.064 20.8519C185.615 21.15 186.028 21.5786 186.303 22.1376L184.981 22.9202C184.77 22.5754 184.504 22.3192 184.182 22.1515C183.87 21.9745 183.526 21.886 183.149 21.886C182.507 21.886 181.974 22.1003 181.552 22.5289C181.13 22.9481 180.918 23.5118 180.918 24.2199C180.918 24.9279 181.125 25.4962 181.538 25.9248C181.961 26.3441 182.498 26.5537 183.149 26.5537C183.526 26.5537 183.87 26.4698 184.182 26.3021C184.504 26.1251 184.77 25.8643 184.981 25.5195L186.303 26.3021C186.019 26.8611 185.601 27.2944 185.05 27.6018C184.508 27.9 183.879 28.049 183.163 28.049Z" fill="white"/>
<path d="M191.152 24.9605H189.816V27.9512H188.094V20.4885H189.816V23.5071H191.193L193.369 20.4885H195.214L192.543 24.0801L195.393 27.9512H193.369L191.152 24.9605Z" fill="white"/>
<path d="M196.883 20.4885H198.604V25.4077L202.667 20.4885H204.237V27.9512H202.515V23.032L198.467 27.9512H196.883V20.4885Z" fill="white"/>
<path d="M206.828 20.4885H208.55V25.4077L212.612 20.4885H214.182V27.9512H212.461V23.032L208.412 27.9512H206.828V20.4885ZM210.395 19.6081C209.651 19.6081 209.082 19.4357 208.687 19.091C208.302 18.737 208.104 18.2245 208.095 17.5537H209.238C209.247 17.8891 209.348 18.1547 209.541 18.3503C209.743 18.546 210.023 18.6438 210.381 18.6438C210.73 18.6438 211.005 18.546 211.207 18.3503C211.419 18.1547 211.529 17.8891 211.538 17.5537H212.709C212.699 18.2245 212.497 18.737 212.103 19.091C211.708 19.4357 211.139 19.6081 210.395 19.6081Z" fill="white"/>
<path d="M6.4207 39.82C6.99911 40.0064 7.44898 40.3092 7.77032 40.7284C8.10084 41.1384 8.2661 41.6228 8.2661 42.1818C8.2661 42.7688 8.07789 43.2812 7.70146 43.7191C7.32504 44.1477 6.82008 44.4784 6.18658 44.7113C5.56226 44.9442 4.87827 45.0607 4.1346 45.0607C3.49192 45.0607 2.84465 44.9722 2.19279 44.7952C1.55012 44.6088 0.953343 44.334 0.402476 43.9706L0.980886 42.643C1.40322 42.9318 1.87145 43.1554 2.3856 43.3138C2.89974 43.4629 3.40929 43.5374 3.91425 43.5374C4.63956 43.5374 5.24092 43.393 5.71834 43.1042C6.20494 42.8154 6.44824 42.4194 6.44824 41.9163C6.44824 41.4877 6.2738 41.1616 5.92492 40.938C5.57604 40.7144 5.09403 40.6026 4.47889 40.6026H2.23411V39.1772H4.34118C4.87368 39.1772 5.29142 39.0654 5.5944 38.8418C5.89737 38.6182 6.04886 38.3154 6.04886 37.9334C6.04886 37.4769 5.84229 37.1229 5.42914 36.8713C5.02517 36.6197 4.50644 36.494 3.87294 36.494C3.44143 36.494 2.99614 36.5592 2.53709 36.6896C2.07803 36.8107 1.64652 36.9924 1.24255 37.2347L0.677909 35.7673C1.17369 35.4971 1.69701 35.2968 2.24788 35.1663C2.80793 35.0266 3.36339 34.9567 3.91425 34.9567C4.63038 34.9567 5.28683 35.0685 5.8836 35.2921C6.48956 35.5157 6.97156 35.8371 7.32963 36.2564C7.68769 36.6663 7.86672 37.1508 7.86672 37.7098C7.86672 38.1943 7.73819 38.6182 7.48112 38.9815C7.22405 39.3449 6.87057 39.6244 6.4207 39.82Z" fill="white"/>
<path d="M13.1194 37.3744C14.2028 37.3744 15.0291 37.6399 15.5983 38.171C16.1767 38.6927 16.466 39.4846 16.466 40.5467V44.9209H14.8409V44.0126C14.6297 44.3387 14.3268 44.5902 13.932 44.7672C13.5464 44.9349 13.0781 45.0188 12.5273 45.0188C11.9764 45.0188 11.4944 44.9256 11.0812 44.7393C10.6681 44.5436 10.3467 44.2781 10.1172 43.9427C9.89686 43.598 9.78669 43.2113 9.78669 42.7828C9.78669 42.112 10.03 41.5762 10.5166 41.1756C11.0124 40.7657 11.7882 40.5607 12.844 40.5607H14.7445V40.4489C14.7445 39.9272 14.5884 39.5266 14.2763 39.2471C13.9733 38.9676 13.5188 38.8278 12.9129 38.8278C12.4997 38.8278 12.0911 38.893 11.6872 39.0235C11.2924 39.1539 10.9573 39.3356 10.6818 39.5685L10.007 38.2968C10.3926 37.9986 10.8563 37.7704 11.398 37.612C11.9397 37.4536 12.5135 37.3744 13.1194 37.3744ZM12.8853 43.747C13.3168 43.747 13.6978 43.6492 14.0284 43.4536C14.3681 43.2486 14.6068 42.9598 14.7445 42.5871V41.7207H12.9679C11.9764 41.7207 11.4806 42.0514 11.4806 42.7129C11.4806 43.0297 11.6045 43.2812 11.8524 43.4675C12.1003 43.6539 12.4446 43.747 12.8853 43.747Z" fill="white"/>
<path d="M24.2012 41.0359C25.1102 41.3154 25.5646 41.9116 25.5646 42.8247C25.5646 43.4955 25.3167 44.0126 24.8209 44.3759C24.3252 44.7393 23.5907 44.9209 22.6175 44.9209H18.8716V37.4583H22.466C23.3657 37.4583 24.0681 37.626 24.5731 37.9614C25.078 38.2968 25.3305 38.7719 25.3305 39.3868C25.3305 39.7688 25.2295 40.0995 25.0275 40.379C24.8347 40.6585 24.5593 40.8775 24.2012 41.0359ZM20.5104 40.5747H22.3145C23.2051 40.5747 23.6504 40.2626 23.6504 39.6384C23.6504 39.0328 23.2051 38.73 22.3145 38.73H20.5104V40.5747ZM22.4798 43.6492C23.4254 43.6492 23.8982 43.3371 23.8982 42.7129C23.8982 42.3868 23.7881 42.1446 23.5677 41.9862C23.3474 41.8185 23.0031 41.7346 22.5348 41.7346H20.5104V43.6492H22.4798Z" fill="white"/>
<path d="M30.9513 45.0188C30.2076 45.0188 29.5374 44.8557 28.9406 44.5296C28.3438 44.2036 27.8756 43.7517 27.5359 43.1741C27.2054 42.5871 27.0401 41.9256 27.0401 41.1896C27.0401 40.4536 27.2054 39.7967 27.5359 39.2191C27.8756 38.6415 28.3438 38.1896 28.9406 37.8635C29.5374 37.5374 30.2076 37.3744 30.9513 37.3744C31.7041 37.3744 32.3789 37.5374 32.9757 37.8635C33.5725 38.1896 34.0361 38.6415 34.3667 39.2191C34.7064 39.7967 34.8762 40.4536 34.8762 41.1896C34.8762 41.9256 34.7064 42.5871 34.3667 43.1741C34.0361 43.7517 33.5725 44.2036 32.9757 44.5296C32.3789 44.8557 31.7041 45.0188 30.9513 45.0188ZM30.9513 43.5234C31.5848 43.5234 32.1081 43.3092 32.5213 42.8806C32.9344 42.452 33.141 41.8884 33.141 41.1896C33.141 40.4908 32.9344 39.9272 32.5213 39.4986C32.1081 39.07 31.5848 38.8558 30.9513 38.8558C30.3178 38.8558 29.7945 39.07 29.3813 39.4986C28.9773 39.9272 28.7754 40.4908 28.7754 41.1896C28.7754 41.8884 28.9773 42.452 29.3813 42.8806C29.7945 43.3092 30.3178 43.5234 30.9513 43.5234Z" fill="white"/>
<path d="M44.6214 43.4396V46.584H43.0101V44.9209H37.3362V46.584H35.7387V43.4396H36.083C36.5512 43.421 36.8679 43.1182 37.0332 42.5312C37.2076 41.9349 37.3224 41.0964 37.3775 40.0157L37.4739 37.4583H43.5334V43.4396H44.6214ZM38.9475 40.1415C38.9107 40.9986 38.8419 41.6974 38.7409 42.2377C38.6399 42.7781 38.4563 43.1787 38.19 43.4396H41.812V38.9396H38.9888L38.9475 40.1415Z" fill="white"/>
</svg>
