<svg width="214" height="141" viewBox="0 0 214 141" fill="none" xmlns="http://www.w3.org/2000/svg">
<path d="M5.029 88.8765H1.17V86.9215H10.979V88.8765H7.12V98.8215H5.029V88.8765ZM12.077 98.8215H10.003V91.1715H12.077V93.9425H13.437C13.641 93.0359 14.0886 92.3162 14.78 91.7835C15.4713 91.2509 16.3156 90.9845 17.313 90.9845C18.537 90.9845 19.5286 91.3642 20.288 92.1235C21.0473 92.8715 21.427 93.8292 21.427 94.9965C21.427 96.1412 21.0416 97.0989 20.271 97.8695C19.5116 98.6289 18.5256 99.0085 17.313 99.0085C16.2816 99.0085 15.4146 98.7309 14.712 98.1755C14.0206 97.6089 13.5843 96.8495 13.403 95.8975H12.077V98.8215ZM15.528 94.9965C15.528 95.6312 15.6923 96.1355 16.021 96.5095C16.361 96.8722 16.8086 97.0535 17.364 97.0535C17.9193 97.0535 18.367 96.8722 18.707 96.5095C19.047 96.1355 19.217 95.6312 19.217 94.9965C19.217 94.3619 19.047 93.8632 18.707 93.5005C18.3783 93.1265 17.9306 92.9395 17.364 92.9395C16.82 92.9395 16.378 93.1265 16.038 93.5005C15.698 93.8745 15.528 94.3732 15.528 94.9965ZM24.9198 98.8215H22.9648V91.1715H24.7328L27.3338 94.3675L29.7988 91.1715H31.5158V98.8215H29.5608V94.1465L27.2998 97.0025H27.2488L24.9198 94.1465V98.8215ZM39.5204 96.6795L40.0814 98.0565C39.3221 98.6912 38.3474 99.0085 37.1574 99.0085C35.9334 99.0085 34.9361 98.6402 34.1654 97.9035C33.4174 97.1782 33.0434 96.2092 33.0434 94.9965C33.0434 93.8632 33.4117 92.9112 34.1484 92.1405C34.8851 91.3699 35.8654 90.9845 37.0894 90.9845C38.0981 90.9845 38.9537 91.3189 39.6564 91.9875C40.3591 92.6562 40.7104 93.5062 40.7104 94.5375C40.7104 94.9909 40.6707 95.3422 40.5914 95.5915H35.0664C35.1457 96.1469 35.3894 96.5832 35.7974 96.9005C36.2167 97.2179 36.7381 97.3765 37.3614 97.3765C38.2114 97.3765 38.9311 97.1442 39.5204 96.6795ZM37.0044 92.6165C35.8937 92.6165 35.2251 93.1719 34.9984 94.2825H38.7554C38.7667 93.7952 38.6081 93.3985 38.2794 93.0925C37.9621 92.7752 37.5371 92.6165 37.0044 92.6165ZM49.374 98.8215H47.419V95.8975H44.07V98.8215H42.115V91.1715H44.07V94.0615H47.419V91.1715H49.374V98.8215ZM57.1717 96.2545L58.0897 97.6825C57.4437 98.5665 56.4294 99.0085 55.0467 99.0085C53.8114 99.0085 52.8084 98.6402 52.0377 97.9035C51.2784 97.1782 50.8987 96.2092 50.8987 94.9965C50.8987 93.8519 51.2727 92.8999 52.0207 92.1405C52.7687 91.3699 53.7151 90.9845 54.8597 90.9845C56.2197 90.9845 57.2454 91.3302 57.9367 92.0215L57.0187 93.5685C56.4974 93.0699 55.8627 92.8205 55.1147 92.8205C54.5481 92.8205 54.0494 93.0245 53.6187 93.4325C53.1994 93.8179 52.9897 94.3392 52.9897 94.9965C52.9897 95.6539 53.2051 96.1865 53.6357 96.5945C54.0891 96.9912 54.6104 97.1895 55.1997 97.1895C55.9591 97.1895 56.6164 96.8779 57.1717 96.2545ZM64.2659 91.1715H66.7309L63.7899 94.8095L67.0879 98.8215H64.5379L61.5119 94.9625L64.2659 91.1715ZM61.4439 98.8215H59.4889V91.1715H61.4439V98.8215ZM73.5929 93.9765L70.0229 98.8215H68.0679V91.1715H70.0229V96.0165L73.5929 91.1715H75.5479V98.8215H73.5929V93.9765ZM83.085 93.9765L79.515 98.8215H77.56V91.1715H79.515V96.0165L83.085 91.1715H85.04V98.8215H83.085V93.9765ZM78.699 87.3465H80.484C80.484 87.7205 80.5577 88.0209 80.705 88.2475C80.8524 88.4742 81.0734 88.5875 81.368 88.5875C81.6287 88.5875 81.827 88.4742 81.963 88.2475C82.1104 88.0095 82.184 87.7092 82.184 87.3465H83.969C83.969 88.1399 83.7367 88.7802 83.272 89.2675C82.8074 89.7435 82.1727 89.9815 81.368 89.9815C80.484 89.9815 79.8154 89.7492 79.362 89.2845C78.92 88.8085 78.699 88.1625 78.699 87.3465ZM9.602 104.922H12.05L8.038 110.753L12.203 116.822H9.755L6.678 112.351L3.618 116.822H1.17L5.335 110.753L1.357 104.922H3.805L6.729 109.223L9.602 104.922ZM18.8151 111.977L15.2451 116.822H13.2901V109.172H15.2451V114.017L18.8151 109.172H20.7701V116.822H18.8151V111.977ZM24.7372 116.822H22.7822V109.172H24.5502L27.1512 112.368L29.6162 109.172H31.3332V116.822H29.3782V112.147L27.1172 115.003H27.0662L24.7372 112.147V116.822ZM38.8618 111.977L35.2918 116.822H33.3368V109.172H35.2918V114.017L38.8618 109.172H40.8168V116.822H38.8618V111.977ZM47.6059 109.172H50.0709L47.1299 112.81L50.4279 116.822H47.8779L44.8519 112.963L47.6059 109.172ZM44.7839 116.822H42.8289V109.172H44.7839V116.822ZM51.6061 115.887C50.8467 115.127 50.4671 114.164 50.4671 112.997C50.4671 111.829 50.8467 110.872 51.6061 110.124C52.3654 109.364 53.3741 108.985 54.6321 108.985C55.8787 108.985 56.8817 109.364 57.6411 110.124C58.4117 110.872 58.7971 111.829 58.7971 112.997C58.7971 114.153 58.4117 115.116 57.6411 115.887C56.8704 116.635 55.8674 117.009 54.6321 117.009C53.3741 117.009 52.3654 116.635 51.6061 115.887ZM53.1531 111.433C52.7564 111.841 52.5581 112.362 52.5581 112.997C52.5581 113.631 52.7507 114.158 53.1361 114.578C53.5327 114.986 54.0314 115.19 54.6321 115.19C55.2441 115.19 55.7427 114.986 56.1281 114.578C56.5247 114.17 56.7231 113.643 56.7231 112.997C56.7231 112.362 56.5247 111.841 56.1281 111.433C55.7314 111.025 55.2327 110.821 54.6321 110.821C54.0427 110.821 53.5497 111.025 53.1531 111.433ZM64.8678 113.082H60.5838V111.263H64.8678V113.082ZM74.1442 116.958H72.0532V115.377C70.3986 115.377 69.0669 114.969 68.0582 114.153C67.0609 113.325 66.5622 112.175 66.5622 110.702C66.5622 109.24 67.0609 108.101 68.0582 107.285C69.0669 106.457 70.3986 106.038 72.0532 106.027V104.786H74.1442V106.027C75.7876 106.038 77.1136 106.463 78.1222 107.302C79.1309 108.14 79.6352 109.274 79.6352 110.702C79.6352 112.152 79.1309 113.297 78.1222 114.136C77.1249 114.94 75.7989 115.354 74.1442 115.377V116.958ZM77.4252 110.702C77.4252 109.863 77.1419 109.2 76.5752 108.713C76.0086 108.214 75.1982 107.959 74.1442 107.948V113.456C76.3316 113.444 77.4252 112.526 77.4252 110.702ZM68.7722 110.702C68.7722 111.586 69.0556 112.266 69.6222 112.742C70.1889 113.206 70.9992 113.444 72.0532 113.456V107.948C71.0106 107.959 70.2002 108.214 69.6222 108.713C69.0556 109.2 68.7722 109.863 68.7722 110.702ZM81.741 111.144L81.248 109.716C82.0753 109.228 82.9763 108.985 83.951 108.985C85.0163 108.985 85.7926 109.245 86.28 109.767C86.7673 110.288 87.011 111.087 87.011 112.164V116.822H85.311V115.938C84.8576 116.595 84.104 116.924 83.05 116.924C82.3246 116.924 81.741 116.714 81.299 116.295C80.8683 115.864 80.653 115.292 80.653 114.578C80.653 113.784 80.908 113.172 81.418 112.742C81.928 112.311 82.6023 112.096 83.441 112.096C84.1323 112.096 84.7103 112.26 85.175 112.589C85.1976 111.909 85.0956 111.41 84.869 111.093C84.6536 110.775 84.2796 110.617 83.747 110.617C83.1576 110.617 82.489 110.792 81.741 111.144ZM83.696 115.275C84.3533 115.275 84.8463 115.042 85.175 114.578V113.796C84.8576 113.546 84.41 113.422 83.832 113.422C83.4693 113.422 83.1746 113.507 82.948 113.677C82.7213 113.847 82.608 114.079 82.608 114.374C82.608 114.646 82.71 114.867 82.914 115.037C83.118 115.195 83.3786 115.275 83.696 115.275ZM90.8001 120.222H88.8451V109.172H90.8001V109.903C91.0494 109.631 91.3894 109.41 91.8201 109.24C92.2508 109.07 92.6984 108.985 93.1631 108.985C94.2171 108.985 95.0558 109.347 95.6791 110.073C96.3138 110.809 96.6311 111.744 96.6311 112.878C96.6311 114.068 96.2571 115.054 95.5091 115.836C94.7611 116.618 93.7864 117.009 92.5851 117.009C91.8144 117.009 91.2194 116.884 90.8001 116.635V120.222ZM92.5511 110.821C91.8711 110.821 91.2874 111.098 90.8001 111.654V114.748C91.2648 115.042 91.8031 115.19 92.4151 115.19C93.0611 115.19 93.5768 114.98 93.9621 114.561C94.3588 114.141 94.5571 113.597 94.5571 112.929C94.5571 112.294 94.3758 111.784 94.0131 111.399C93.6618 111.013 93.1744 110.821 92.5511 110.821ZM100.11 116.822H98.1546V109.172H99.9226L102.524 112.368L104.989 109.172H106.706V116.822H104.751V112.147L102.49 115.003H102.439L100.11 112.147V116.822ZM109.304 111.144L108.811 109.716C109.639 109.228 110.54 108.985 111.514 108.985C112.58 108.985 113.356 109.245 113.843 109.767C114.331 110.288 114.574 111.087 114.574 112.164V116.822H112.874V115.938C112.421 116.595 111.667 116.924 110.613 116.924C109.888 116.924 109.304 116.714 108.862 116.295C108.432 115.864 108.216 115.292 108.216 114.578C108.216 113.784 108.471 113.172 108.981 112.742C109.491 112.311 110.166 112.096 111.004 112.096C111.696 112.096 112.274 112.26 112.738 112.589C112.761 111.909 112.659 111.41 112.432 111.093C112.217 110.775 111.843 110.617 111.31 110.617C110.721 110.617 110.052 110.792 109.304 111.144ZM111.259 115.275C111.917 115.275 112.41 115.042 112.738 114.578V113.796C112.421 113.546 111.973 113.422 111.395 113.422C111.033 113.422 110.738 113.507 110.511 113.677C110.285 113.847 110.171 114.079 110.171 114.374C110.171 114.646 110.273 114.867 110.477 115.037C110.681 115.195 110.942 115.275 111.259 115.275ZM122.902 116.822H116.408V109.172H118.363V115.003H121.508V109.172H123.463V115.003H124.738V118.607H122.902V116.822ZM131.868 114.68L132.429 116.057C131.67 116.691 130.695 117.009 129.505 117.009C128.281 117.009 127.284 116.64 126.513 115.904C125.765 115.178 125.391 114.209 125.391 112.997C125.391 111.863 125.76 110.911 126.496 110.141C127.233 109.37 128.213 108.985 129.437 108.985C130.446 108.985 131.302 109.319 132.004 109.988C132.707 110.656 133.058 111.506 133.058 112.538C133.058 112.991 133.019 113.342 132.939 113.592H127.414C127.494 114.147 127.737 114.583 128.145 114.901C128.565 115.218 129.086 115.377 129.709 115.377C130.559 115.377 131.279 115.144 131.868 114.68ZM129.352 110.617C128.242 110.617 127.573 111.172 127.346 112.283H131.103C131.115 111.795 130.956 111.399 130.627 111.093C130.31 110.775 129.885 110.617 129.352 110.617ZM140.142 120.222H138.187V117.009H138.085C136.77 117.009 135.75 116.635 135.025 115.887C134.3 115.15 133.937 114.187 133.937 112.997C133.937 111.909 134.305 110.968 135.042 110.175C135.79 109.381 136.799 108.985 138.068 108.985H138.187V104.922H140.142V108.985H140.278C141.559 108.985 142.562 109.364 143.287 110.124C144.024 110.883 144.392 111.841 144.392 112.997C144.392 114.209 144.029 115.184 143.304 115.921C142.59 116.646 141.581 117.009 140.278 117.009H140.142V120.222ZM140.278 110.821H140.142V115.19H140.21C140.879 115.19 141.394 114.997 141.757 114.612C142.12 114.215 142.301 113.677 142.301 112.997C142.301 112.362 142.12 111.841 141.757 111.433C141.406 111.025 140.913 110.821 140.278 110.821ZM136.028 112.997C136.028 113.665 136.209 114.198 136.572 114.595C136.946 114.991 137.467 115.19 138.136 115.19H138.187V110.821H138.051C137.394 110.821 136.889 111.019 136.538 111.416C136.198 111.812 136.028 112.339 136.028 112.997ZM147.332 111.127H144.816V109.172H151.786V111.127H149.287V116.822H147.332V111.127ZM158.54 111.977L154.97 116.822H153.015V109.172H154.97V114.017L158.54 109.172H160.495V116.822H158.54V111.977ZM166.724 109.172H168.679V116.822H166.724V114.187C166.157 114.481 165.522 114.629 164.82 114.629C163.868 114.629 163.165 114.379 162.712 113.881C162.27 113.382 162.049 112.628 162.049 111.62V109.172H164.14V111.382C164.14 112.322 164.553 112.793 165.381 112.793C165.913 112.793 166.361 112.691 166.724 112.487V109.172ZM176.689 114.68L177.25 116.057C176.491 116.691 175.516 117.009 174.326 117.009C173.102 117.009 172.105 116.64 171.334 115.904C170.586 115.178 170.212 114.209 170.212 112.997C170.212 111.863 170.58 110.911 171.317 110.141C172.054 109.37 173.034 108.985 174.258 108.985C175.267 108.985 176.122 109.319 176.825 109.988C177.528 110.656 177.879 111.506 177.879 112.538C177.879 112.991 177.839 113.342 177.76 113.592H172.235C172.314 114.147 172.558 114.583 172.966 114.901C173.385 115.218 173.907 115.377 174.53 115.377C175.38 115.377 176.1 115.144 176.689 114.68ZM174.173 110.617C173.062 110.617 172.394 111.172 172.167 112.283H175.924C175.935 111.795 175.777 111.399 175.448 111.093C175.131 110.775 174.706 110.617 174.173 110.617ZM185.031 114.255L185.949 115.683C185.303 116.567 184.289 117.009 182.906 117.009C181.671 117.009 180.668 116.64 179.897 115.904C179.138 115.178 178.758 114.209 178.758 112.997C178.758 111.852 179.132 110.9 179.88 110.141C180.628 109.37 181.574 108.985 182.719 108.985C184.079 108.985 185.105 109.33 185.796 110.022L184.878 111.569C184.357 111.07 183.722 110.821 182.974 110.821C182.407 110.821 181.909 111.025 181.478 111.433C181.059 111.818 180.849 112.339 180.849 112.997C180.849 113.654 181.064 114.187 181.495 114.595C181.948 114.991 182.47 115.19 183.059 115.19C183.818 115.19 184.476 114.878 185.031 114.255ZM192.125 109.172H194.59L191.649 112.81L194.947 116.822H192.397L189.371 112.963L192.125 109.172ZM189.303 116.822H187.348V109.172H189.303V116.822ZM201.452 111.977L197.882 116.822H195.927V109.172H197.882V114.017L201.452 109.172H203.407V116.822H201.452V111.977ZM210.944 111.977L207.374 116.822H205.419V109.172H207.374V114.017L210.944 109.172H212.899V116.822H210.944V111.977ZM206.558 105.347H208.343C208.343 105.721 208.417 106.021 208.564 106.248C208.712 106.474 208.933 106.588 209.227 106.588C209.488 106.588 209.686 106.474 209.822 106.248C209.97 106.01 210.043 105.709 210.043 105.347H211.828C211.828 106.14 211.596 106.78 211.131 107.268C210.667 107.744 210.032 107.982 209.227 107.982C208.343 107.982 207.675 107.749 207.221 107.285C206.779 106.809 206.558 106.163 206.558 105.347ZM5.675 135.009C4.757 135.009 3.941 134.822 3.227 134.448C2.52433 134.074 1.98033 133.592 1.595 133.003L2.734 131.592C3.108 132.022 3.55567 132.374 4.077 132.646C4.59833 132.918 5.097 133.054 5.573 133.054C6.219 133.054 6.746 132.901 7.154 132.595C7.562 132.277 7.766 131.841 7.766 131.286C7.766 130.798 7.579 130.419 7.205 130.147C6.84233 129.863 6.32667 129.722 5.658 129.722H4.434V127.767H5.59C6.066 127.767 6.46833 127.625 6.797 127.342C7.137 127.047 7.307 126.667 7.307 126.203C7.307 125.727 7.14833 125.358 6.831 125.098C6.525 124.826 6.10567 124.69 5.573 124.69C4.60967 124.69 3.805 125.12 3.159 125.982L1.952 124.588C2.36 124.032 2.90967 123.585 3.601 123.245C4.29233 122.905 5.029 122.735 5.811 122.735C6.899 122.735 7.766 123.024 8.412 123.602C9.058 124.18 9.381 124.979 9.381 125.999C9.381 126.497 9.23933 126.985 8.956 127.461C8.684 127.937 8.293 128.322 7.783 128.617V128.668C8.463 128.838 8.973 129.172 9.313 129.671C9.66433 130.158 9.84 130.764 9.84 131.49C9.84 132.544 9.42633 133.394 8.599 134.04C7.783 134.686 6.80833 135.009 5.675 135.009ZM12.4573 129.144L11.9643 127.716C12.7917 127.228 13.6927 126.985 14.6673 126.985C15.7327 126.985 16.509 127.245 16.9963 127.767C17.4837 128.288 17.7273 129.087 17.7273 130.164V134.822H16.0273V133.938C15.574 134.595 14.8203 134.924 13.7663 134.924C13.041 134.924 12.4573 134.714 12.0153 134.295C11.5847 133.864 11.3693 133.292 11.3693 132.578C11.3693 131.784 11.6243 131.172 12.1343 130.742C12.6443 130.311 13.3187 130.096 14.1573 130.096C14.8487 130.096 15.4267 130.26 15.8913 130.589C15.914 129.909 15.812 129.41 15.5853 129.093C15.37 128.775 14.996 128.617 14.4633 128.617C13.874 128.617 13.2053 128.792 12.4573 129.144ZM14.4123 133.275C15.0697 133.275 15.5627 133.042 15.8913 132.578V131.796C15.574 131.546 15.1263 131.422 14.5483 131.422C14.1857 131.422 13.891 131.507 13.6643 131.677C13.4377 131.847 13.3243 132.079 13.3243 132.374C13.3243 132.646 13.4263 132.867 13.6303 133.037C13.8343 133.195 14.095 133.275 14.4123 133.275ZM19.5615 134.822V127.172C19.6635 127.172 20.0941 127.16 20.8535 127.138C21.6241 127.104 22.1965 127.087 22.5705 127.087C24.8825 127.087 26.0385 127.755 26.0385 129.093C26.0385 129.523 25.9025 129.903 25.6305 130.232C25.3585 130.549 25.0185 130.736 24.6105 130.793V130.827C25.6985 131.087 26.2425 131.677 26.2425 132.595C26.2425 134.136 25.0298 134.907 22.6045 134.907C22.2531 134.907 21.7148 134.89 20.9895 134.856C20.8081 134.856 20.5985 134.85 20.3605 134.839C20.1338 134.839 19.9581 134.833 19.8335 134.822C19.7201 134.822 19.6295 134.822 19.5615 134.822ZM22.7405 131.575H21.5165V133.275C22.1965 133.32 22.6271 133.343 22.8085 133.343C23.2391 133.343 23.5735 133.263 23.8115 133.105C24.0608 132.946 24.1855 132.731 24.1855 132.459C24.1855 131.869 23.7038 131.575 22.7405 131.575ZM22.7405 128.668C22.2871 128.668 21.8791 128.679 21.5165 128.702V130.385H22.7915C23.1428 130.385 23.4261 130.305 23.6415 130.147C23.8568 129.988 23.9645 129.773 23.9645 129.501C23.9645 128.945 23.5565 128.668 22.7405 128.668ZM28.5877 133.887C27.8283 133.127 27.4487 132.164 27.4487 130.997C27.4487 129.829 27.8283 128.872 28.5877 128.124C29.347 127.364 30.3557 126.985 31.6137 126.985C32.8603 126.985 33.8633 127.364 34.6227 128.124C35.3933 128.872 35.7787 129.829 35.7787 130.997C35.7787 132.153 35.3933 133.116 34.6227 133.887C33.852 134.635 32.849 135.009 31.6137 135.009C30.3557 135.009 29.347 134.635 28.5877 133.887ZM30.1347 129.433C29.738 129.841 29.5397 130.362 29.5397 130.997C29.5397 131.631 29.7323 132.158 30.1177 132.578C30.5143 132.986 31.013 133.19 31.6137 133.19C32.2257 133.19 32.7243 132.986 33.1097 132.578C33.5063 132.17 33.7047 131.643 33.7047 130.997C33.7047 130.362 33.5063 129.841 33.1097 129.433C32.713 129.025 32.2143 128.821 31.6137 128.821C31.0243 128.821 30.5313 129.025 30.1347 129.433ZM37.9526 136.607H36.1336V133.003H37.1026C37.7032 132.198 38.0602 130.866 38.1736 129.008L38.2926 127.172H43.9366V133.003H45.2116V136.607H43.3756V134.822H37.9526V136.607ZM40.1116 129.008L40.0606 129.79C39.9246 131.263 39.6186 132.334 39.1426 133.003H41.9816V129.008H40.1116Z" fill="white"/>
<path d="M25.6095 48.0847C12.5802 48.0847 2.01562 37.5454 2.01562 24.5437C2.01562 11.5393 12.5802 1 25.6095 1H25.7036H39.0925H52.4787H52.5728C65.6021 1 76.1666 11.5393 76.1666 24.5437C76.1666 34.2384 70.2938 42.5638 61.9035 46.1717C62.3821 44.3029 62.6366 42.343 62.6366 40.3251C62.6366 32.2564 58.5701 25.14 52.3736 20.8972H42.744H39.0925H35.4382H25.8087V28.1875H35.4382V48.0847H25.7036H25.6095V48.0847Z" stroke="white" stroke-width="2" stroke-linejoin="round"/>
<path d="M62.6349 40.3251C62.6349 53.3268 52.0731 63.8661 39.0437 63.8661C28.0172 63.8661 18.7611 56.3218 16.1719 46.1248C19.0627 47.3863 22.2522 48.0847 25.6078 48.0847H25.7018H35.4365H39.0908H42.7423V28.1875H52.3718V20.8972C58.5684 25.14 62.6349 32.2564 62.6349 40.3251Z" stroke="white" stroke-width="2" stroke-linejoin="round"/>
<path d="M39 48.3989V63.866" stroke="white" stroke-width="2"/>
<path d="M39 1V21.4564" stroke="white" stroke-width="2"/>
</svg>
