<svg width="276" height="58" fill="none" xmlns="http://www.w3.org/2000/svg">
  <path d="M91.243 6.206H87.84V4.48h8.654v1.725H93.09v8.775h-1.846V6.206zm6.22 8.775h-1.83V8.23h1.83v2.445h1.2c.18-.8.574-1.435 1.184-1.905s1.355-.705 2.235-.705c1.08 0 1.955.335 2.625 1.005.67.66 1.005 1.505 1.005 2.535 0 1.01-.34 1.855-1.02 2.535-.67.67-1.54 1.005-2.61 1.005-.91 0-1.675-.245-2.295-.735-.61-.5-.995-1.17-1.155-2.01h-1.17v2.58zm3.044-3.375c0 .56.145 1.005.435 1.335.3.32.695.48 1.185.48.49 0 .885-.16 1.185-.48.3-.33.45-.775.45-1.335 0-.56-.15-1-.45-1.32-.29-.33-.685-.495-1.185-.495-.48 0-.87.165-1.17.495-.3.33-.45.77-.45 1.32zm8.287 3.375h-1.725V8.23h1.56l2.295 2.82 2.175-2.82h1.515v6.75h-1.725v-4.125l-1.995 2.52h-.045l-2.055-2.52v4.125zm12.883-1.89l.495 1.215c-.67.56-1.53.84-2.58.84-1.08 0-1.96-.325-2.64-.975-.66-.64-.99-1.495-.99-2.565 0-1 .325-1.84.975-2.52.65-.68 1.515-1.02 2.595-1.02.89 0 1.645.295 2.265.885.62.59.93 1.34.93 2.25 0 .4-.035.71-.105.93h-4.875c.07.49.285.875.645 1.155.37.28.83.42 1.38.42.75 0 1.385-.205 1.905-.615zm-2.22-3.585c-.98 0-1.57.49-1.77 1.47h3.315c.01-.43-.13-.78-.42-1.05-.28-.28-.655-.42-1.125-.42zm10.914 5.475h-1.725V12.4h-2.955v2.58h-1.725V8.23h1.725v2.55h2.955V8.23h1.725v6.75zm6.881-2.265l.81 1.26c-.57.78-1.465 1.17-2.685 1.17-1.09 0-1.975-.325-2.655-.975-.67-.64-1.005-1.495-1.005-2.565 0-1.01.33-1.85.99-2.52.66-.68 1.495-1.02 2.505-1.02 1.2 0 2.105.305 2.715.915l-.81 1.365c-.46-.44-1.02-.66-1.68-.66-.5 0-.94.18-1.32.54-.37.34-.555.8-.555 1.38 0 .58.19 1.05.57 1.41.4.35.86.525 1.38.525.67 0 1.25-.275 1.74-.825zm6.259-4.485h2.175l-2.595 3.21 2.91 3.54h-2.25l-2.67-3.405 2.43-3.345zm-2.49 6.75h-1.725V8.23h1.725v6.75zm10.72-4.275l-3.15 4.275h-1.725V8.23h1.725v4.275l3.15-4.275h1.725v6.75h-1.725v-4.275zm8.375 0l-3.15 4.275h-1.725V8.23h1.725v4.275l3.15-4.275h1.725v6.75h-1.725v-4.275zm-3.87-5.85h1.575c0 .33.065.595.195.795.13.2.325.3.585.3.23 0 .405-.1.525-.3.13-.21.195-.475.195-.795h1.575c0 .7-.205 1.265-.615 1.695-.41.42-.97.63-1.68.63-.78 0-1.37-.205-1.77-.615-.39-.42-.585-.99-.585-1.71zM95.278 22.48h2.16l-3.54 5.145 3.675 5.355h-2.16l-2.715-3.945-2.7 3.945h-2.16l3.675-5.355-3.51-5.145h2.16l2.58 3.795 2.535-3.795zm8.13 6.225l-3.15 4.275h-1.725v-6.75h1.725v4.275l3.15-4.275h1.725v6.75h-1.725v-4.275zm5.225 4.275h-1.725v-6.75h1.56l2.295 2.82 2.175-2.82h1.515v6.75h-1.725v-4.125l-1.995 2.52h-.045l-2.055-2.52v4.125zm12.463-4.275l-3.15 4.275h-1.725v-6.75h1.725v4.275l3.15-4.275h1.725v6.75h-1.725v-4.275zm7.715-2.475h2.175l-2.595 3.21 2.91 3.54h-2.25l-2.67-3.405 2.43-3.345zm-2.49 6.75h-1.725v-6.75h1.725v6.75zm6.02-.825c-.67-.67-1.005-1.52-1.005-2.55 0-1.03.335-1.875 1.005-2.535.67-.67 1.56-1.005 2.67-1.005 1.1 0 1.985.335 2.655 1.005.68.66 1.02 1.505 1.02 2.535 0 1.02-.34 1.87-1.02 2.55-.68.66-1.565.99-2.655.99-1.11 0-2-.33-2.67-.99zm1.365-3.93c-.35.36-.525.82-.525 1.38 0 .56.17 1.025.51 1.395.35.36.79.54 1.32.54.54 0 .98-.18 1.32-.54.35-.36.525-.825.525-1.395 0-.56-.175-1.02-.525-1.38-.35-.36-.79-.54-1.32-.54-.52 0-.955.18-1.305.54zm10.336 1.455h-3.78v-1.605h3.78v1.605zm8.186 3.42h-1.845v-1.395c-1.46 0-2.635-.36-3.525-1.08-.88-.73-1.32-1.745-1.32-3.045 0-1.29.44-2.295 1.32-3.015.89-.73 2.065-1.1 3.525-1.11V22.36h1.845v1.095c1.45.01 2.62.385 3.51 1.125.89.74 1.335 1.74 1.335 3 0 1.28-.445 2.29-1.335 3.03-.88.71-2.05 1.075-3.51 1.095V33.1zm2.895-5.52c0-.74-.25-1.325-.75-1.755-.5-.44-1.215-.665-2.145-.675v4.86c1.93-.01 2.895-.82 2.895-2.43zm-7.635 0c0 .78.25 1.38.75 1.8.5.41 1.215.62 2.145.63v-4.86c-.92.01-1.635.235-2.145.675-.5.43-.75 1.015-.75 1.755zm11.443.39l-.435-1.26a4.616 4.616 0 012.385-.645c.94 0 1.625.23 2.055.69.43.46.645 1.165.645 2.115v4.11h-1.5v-.78c-.4.58-1.065.87-1.995.87-.64 0-1.155-.185-1.545-.555-.38-.38-.57-.885-.57-1.515 0-.7.225-1.24.675-1.62.45-.38 1.045-.57 1.785-.57.61 0 1.12.145 1.53.435.02-.6-.07-1.04-.27-1.32-.19-.28-.52-.42-.99-.42-.52 0-1.11.155-1.77.465zm1.725 3.645c.58 0 1.015-.205 1.305-.615v-.69c-.28-.22-.675-.33-1.185-.33-.32 0-.58.075-.78.225-.2.15-.3.355-.3.615 0 .24.09.435.27.585.18.14.41.21.69.21zm6.268 4.365h-1.725v-9.75h1.725v.645c.22-.24.52-.435.9-.585.38-.15.775-.225 1.185-.225.93 0 1.67.32 2.22.96.56.65.84 1.475.84 2.475 0 1.05-.33 1.92-.99 2.61-.66.69-1.52 1.035-2.58 1.035-.68 0-1.205-.11-1.575-.33v3.165zm1.545-8.295c-.6 0-1.115.245-1.545.735v2.73c.41.26.885.39 1.425.39.57 0 1.025-.185 1.365-.555.35-.37.525-.85.525-1.44 0-.56-.16-1.01-.48-1.35-.31-.34-.74-.51-1.29-.51zm6.669 5.295h-1.725v-6.75h1.56l2.295 2.82 2.175-2.82h1.515v6.75h-1.725v-4.125l-1.995 2.52h-.045l-2.055-2.52v4.125zm8.113-5.01l-.435-1.26a4.616 4.616 0 012.385-.645c.94 0 1.625.23 2.055.69.43.46.645 1.165.645 2.115v4.11h-1.5v-.78c-.4.58-1.065.87-1.995.87-.64 0-1.155-.185-1.545-.555-.38-.38-.57-.885-.57-1.515 0-.7.225-1.24.675-1.62.45-.38 1.045-.57 1.785-.57.61 0 1.12.145 1.53.435.02-.6-.07-1.04-.27-1.32-.19-.28-.52-.42-.99-.42-.52 0-1.11.155-1.77.465zm1.725 3.645c.58 0 1.015-.205 1.305-.615v-.69c-.28-.22-.675-.33-1.185-.33-.32 0-.58.075-.78.225-.2.15-.3.355-.3.615 0 .24.09.435.27.585.18.14.41.21.69.21zm10.273 1.365h-5.73v-6.75h1.725v5.145h2.775V26.23h1.725v5.145h1.125v3.18h-1.62V32.98zm7.911-1.89l.495 1.215c-.67.56-1.53.84-2.58.84-1.08 0-1.96-.325-2.64-.975-.66-.64-.99-1.495-.99-2.565 0-1 .325-1.84.975-2.52.65-.68 1.515-1.02 2.595-1.02.89 0 1.645.295 2.265.885.62.59.93 1.34.93 2.25 0 .4-.035.71-.105.93h-4.875c.07.49.285.875.645 1.155.37.28.83.42 1.38.42.75 0 1.385-.205 1.905-.615zm-2.22-3.585c-.98 0-1.57.49-1.77 1.47h3.315c.01-.43-.13-.78-.42-1.05-.28-.28-.655-.42-1.125-.42zm9.521 8.475h-1.725v-2.835h-.09c-1.16 0-2.06-.33-2.7-.99-.64-.65-.96-1.5-.96-2.55 0-.96.325-1.79.975-2.49.66-.7 1.55-1.05 2.67-1.05h.105V22.48h1.725v3.585h.12c1.13 0 2.015.335 2.655 1.005.65.67.975 1.515.975 2.535 0 1.07-.32 1.93-.96 2.58-.63.64-1.52.96-2.67.96h-.12v2.835zm.12-8.295h-.12v3.855h.06c.59 0 1.045-.17 1.365-.51.32-.35.48-.825.48-1.425 0-.56-.16-1.02-.48-1.38-.31-.36-.745-.54-1.305-.54zm-3.75 1.92c0 .59.16 1.06.48 1.41.33.35.79.525 1.38.525h.045v-3.855h-.12c-.58 0-1.025.175-1.335.525-.3.35-.45.815-.45 1.395zm9.974-1.65h-2.22V26.23h6.15v1.725h-2.205v5.025h-1.725v-5.025zm9.89.75l-3.15 4.275h-1.725v-6.75h1.725v4.275l3.15-4.275h1.725v6.75h-1.725v-4.275zm7.22-2.475h1.725v6.75h-1.725v-2.325c-.5.26-1.06.39-1.68.39-.84 0-1.46-.22-1.86-.66-.39-.44-.585-1.105-.585-1.995v-2.16h1.845v1.95c0 .83.365 1.245 1.095 1.245.47 0 .865-.09 1.185-.27V26.23zm8.793 4.86l.495 1.215c-.67.56-1.53.84-2.58.84-1.08 0-1.96-.325-2.64-.975-.66-.64-.99-1.495-.99-2.565 0-1 .325-1.84.975-2.52.65-.68 1.515-1.02 2.595-1.02.89 0 1.645.295 2.265.885.62.59.93 1.34.93 2.25 0 .4-.035.71-.105.93h-4.875c.07.49.285.875.645 1.155.37.28.83.42 1.38.42.75 0 1.385-.205 1.905-.615zm-2.22-3.585c-.98 0-1.57.49-1.77 1.47h3.315c.01-.43-.13-.78-.42-1.05-.28-.28-.655-.42-1.125-.42zm9.581 3.21l.81 1.26c-.57.78-1.465 1.17-2.685 1.17-1.09 0-1.975-.325-2.655-.975-.67-.64-1.005-1.495-1.005-2.565 0-1.01.33-1.85.99-2.52.66-.68 1.495-1.02 2.505-1.02 1.2 0 2.105.305 2.715.915l-.81 1.365c-.46-.44-1.02-.66-1.68-.66-.5 0-.94.18-1.32.54-.37.34-.555.8-.555 1.38 0 .58.19 1.05.57 1.41.4.35.86.525 1.38.525.67 0 1.25-.275 1.74-.825zm6.259-4.485h2.175l-2.595 3.21 2.91 3.54h-2.25l-2.67-3.405 2.43-3.345zm-2.49 6.75h-1.725v-6.75h1.725v6.75zm10.72-4.275l-3.15 4.275h-1.725v-6.75h1.725v4.275l3.15-4.275h1.725v6.75h-1.725v-4.275zm8.375 0l-3.15 4.275h-1.725v-6.75h1.725v4.275l3.15-4.275h1.725v6.75h-1.725v-4.275zm-3.87-5.85h1.575c0 .33.065.595.195.795.13.2.325.3.585.3.23 0 .405-.1.525-.3.13-.21.195-.475.195-.795h1.575c0 .7-.205 1.265-.615 1.695-.41.42-.97.63-1.68.63-.78 0-1.37-.205-1.77-.615-.39-.42-.585-.99-.585-1.71zm-177.25 28.29c-.81 0-1.53-.165-2.16-.495-.62-.33-1.1-.755-1.44-1.275l1.006-1.245c.33.38.725.69 1.184.93.46.24.9.36 1.32.36.57 0 1.035-.135 1.395-.405.36-.28.54-.665.54-1.155 0-.43-.165-.765-.495-1.005-.32-.25-.775-.375-1.364-.375h-1.08v-1.725h1.02c.42 0 .774-.125 1.064-.375.3-.26.45-.595.45-1.005 0-.42-.14-.745-.42-.975-.27-.24-.64-.36-1.11-.36-.85 0-1.56.38-2.13 1.14l-1.065-1.23c.36-.49.846-.885 1.456-1.185.61-.3 1.26-.45 1.95-.45.96 0 1.725.255 2.294.765.57.51.856 1.215.856 2.115 0 .44-.126.87-.376 1.29-.24.42-.584.76-1.034 1.02v.045c.6.15 1.05.445 1.35.885.31.43.465.965.465 1.605 0 .93-.365 1.68-1.096 2.25-.72.57-1.58.855-2.58.855zm5.985-5.175l-.435-1.26a4.616 4.616 0 012.385-.645c.94 0 1.625.23 2.055.69.43.46.645 1.165.645 2.115v4.11h-1.5v-.78c-.4.58-1.065.87-1.995.87-.64 0-1.155-.185-1.545-.555-.38-.38-.57-.885-.57-1.515 0-.7.225-1.24.675-1.62.45-.38 1.045-.57 1.785-.57.61 0 1.12.145 1.53.435.02-.6-.07-1.04-.27-1.32-.19-.28-.52-.42-.99-.42-.52 0-1.11.155-1.77.465zm1.725 3.645c.58 0 1.015-.205 1.305-.615v-.69c-.28-.22-.675-.33-1.185-.33-.32 0-.58.075-.78.225-.2.15-.3.355-.3.615 0 .24.09.435.27.585.18.14.41.21.69.21zm4.543 1.365v-6.75c.09 0 .47-.01 1.14-.03.68-.03 1.185-.045 1.515-.045 2.04 0 3.06.59 3.06 1.77 0 .38-.12.715-.36 1.005-.24.28-.54.445-.9.495v.03c.96.23 1.44.75 1.44 1.56 0 1.36-1.07 2.04-3.21 2.04-.31 0-.785-.015-1.425-.045-.16 0-.345-.005-.555-.015-.2 0-.355-.005-.465-.015h-.24zm2.805-2.865h-1.08v1.5c.6.04.98.06 1.14.06.38 0 .675-.07.885-.21.22-.14.33-.33.33-.57 0-.52-.425-.78-1.275-.78zm0-2.565c-.4 0-.76.01-1.08.03v1.485h1.125c.31 0 .56-.07.75-.21a.67.67 0 00.285-.57c0-.49-.36-.735-1.08-.735zm5.16 4.605c-.67-.67-1.005-1.52-1.005-2.55 0-1.03.335-1.875 1.005-2.535.67-.67 1.56-1.005 2.67-1.005 1.1 0 1.985.335 2.655 1.005.68.66 1.02 1.505 1.02 2.535 0 1.02-.34 1.87-1.02 2.55-.68.66-1.565.99-2.655.99-1.11 0-2-.33-2.67-.99zm1.365-3.93c-.35.36-.525.82-.525 1.38 0 .56.17 1.025.51 1.395.35.36.79.54 1.32.54.54 0 .98-.18 1.32-.54.35-.36.525-.825.525-1.395 0-.56-.175-1.02-.525-1.38-.35-.36-.79-.54-1.32-.54-.52 0-.955.18-1.305.54zm6.898 6.33h-1.605v-3.18h.855c.53-.71.845-1.885.945-3.525l.105-1.62h4.98v5.145h1.125v3.18h-1.62V50.98h-4.785v1.575zm1.905-6.705l-.045.69c-.12 1.3-.39 2.245-.81 2.835h2.505V45.85h-1.65z" fill="#fff"/>
  <path d="M22.882 42.942c-11.859 0-21.475-9.388-21.475-20.97C1.407 10.388 11.023 1 22.882 1h24.542c11.859 0 21.475 9.388 21.475 20.972 0 8.636-5.346 16.052-12.983 19.266a20.55 20.55 0 00.668-5.208c0-7.187-3.702-13.527-9.342-17.306H23.063v6.494h8.765v17.724h-8.946v0z" stroke="#fff" stroke-width="2" stroke-linejoin="round"/>
  <path d="M56.582 36.03C56.582 47.612 46.969 57 35.11 57c-10.037 0-18.461-6.72-20.818-15.804a21.815 21.815 0 008.588 1.746h15.596V25.218h8.765v-6.494c5.64 3.78 9.341 10.119 9.341 17.306z" stroke="#fff" stroke-width="2" stroke-linejoin="round"/>
  <path d="M35.07 43.222V57m0-56v18.222" stroke="#fff" stroke-width="2"/>
</svg>
