<svg width="32" height="32" viewBox="0 0 32 32" fill="none" xmlns="http://www.w3.org/2000/svg">
<path d="M26.8579 24.9736L22.5338 20.6494C23.8443 18.9338 24.563 16.8529 24.5633 14.6571C24.5633 12.011 23.5327 9.52303 21.6613 7.65194C19.7902 5.78084 17.3026 4.75024 14.6561 4.75024C12.0099 4.75024 9.52197 5.78084 7.65088 7.65194C3.78825 11.5149 3.78825 17.8 7.65088 21.6624C9.52197 23.5338 12.0099 24.5644 14.6561 24.5644C16.8519 24.5641 18.9328 23.8453 20.6484 22.5348L24.9725 26.859C25.2326 27.1194 25.5741 27.2496 25.9152 27.2496C26.2563 27.2496 26.5978 27.1194 26.8579 26.859C27.3787 26.3385 27.3787 25.4941 26.8579 24.9736ZM9.5363 19.7769C6.71338 16.954 6.7137 12.3606 9.5363 9.53735C10.9038 8.17017 12.7222 7.41691 14.6561 7.41691C16.5903 7.41691 18.4084 8.17017 19.7759 9.53735C21.1434 10.9049 21.8966 12.7232 21.8966 14.6571C21.8966 16.5914 21.1434 18.4094 19.7759 19.7769C18.4084 21.1445 16.5903 21.8977 14.6561 21.8977C12.7222 21.8977 10.9038 21.1445 9.5363 19.7769Z" fill="white"/>
</svg>
