<svg width="64" height="64" viewBox="0 0 64 64" fill="none" xmlns="http://www.w3.org/2000/svg">
<path d="M49.5714 35.1516V28.8486L45.4987 28.0728C45.2078 27.0837 44.8199 26.1334 44.3254 25.2413L46.6527 21.8086L42.192 17.348L38.7593 19.6752C37.8478 19.171 36.8975 18.7831 35.9181 18.4922L35.1423 14.4292H28.8393L28.0636 18.5019C27.0745 18.7928 26.1242 19.1807 25.232 19.6752L21.7993 17.348L17.3387 21.8086L19.666 25.2413C19.1714 26.1334 18.7836 27.0837 18.4926 28.0728L14.4199 28.8486V35.1516L18.483 35.9274C18.7642 36.9068 19.1617 37.8571 19.666 38.7686L17.3387 42.2013L21.7993 46.6619L25.232 44.3346C26.1339 44.8292 27.0745 45.2268 28.0636 45.508L28.8393 49.5807H35.1423L35.9181 45.5177C36.8975 45.2365 37.8478 44.8389 38.7593 44.3346L42.192 46.6619L46.6527 42.2013L44.3254 38.7686C44.8296 37.8571 45.2175 36.9068 45.5084 35.9274L49.5714 35.1516ZM44.1508 41.9686L41.9593 44.1601L38.8369 42.0365L38.3036 42.3662C37.2175 43.0255 36.0636 43.5104 34.8611 43.7916L34.2502 43.9371L33.5423 47.6413H30.449L29.7411 43.9371L29.1399 43.7916C27.9181 43.491 26.7642 43.0159 25.7072 42.3662L25.1739 42.0365L22.0514 44.1601L19.8599 41.9686L21.9836 38.8462L21.6539 38.3128C20.9945 37.2268 20.5096 36.0728 20.2284 34.8704L20.083 34.2595L16.3787 33.5516V30.4486L20.083 29.7407L20.2284 29.1395C20.529 27.9177 21.0042 26.7637 21.6539 25.7068L21.9836 25.1734L19.8599 22.051L22.0514 19.8595L25.1739 21.9831L25.7072 21.6534C26.7642 21.0037 27.9278 20.5286 29.1399 20.228L29.7411 20.0825L30.449 16.3783H33.5423L34.2502 20.0825L34.8611 20.228C36.0636 20.5092 37.2175 20.994 38.3036 21.6534L38.8369 21.9831L41.9593 19.8595L44.1508 22.051L42.0272 25.1734L42.3569 25.7068C43.0066 26.7637 43.4817 27.9274 43.7823 29.1395L43.9278 29.7407L47.632 30.4486V33.5419L43.9278 34.2498L43.7823 34.8607C43.5011 36.0631 43.0163 37.2171 42.3569 38.3031L42.0272 38.8365L44.1508 41.9686Z" fill="#E60094"/>
<path d="M32.0001 25.2605C28.2764 25.2605 25.251 28.286 25.251 32.0096C25.251 35.7332 28.2764 38.7587 32.0001 38.7587C35.7237 38.7587 38.7492 35.7332 38.7492 32.0096C38.7492 28.286 35.7237 25.2605 32.0001 25.2605ZM32.0001 36.8096C29.3528 36.8096 27.1904 34.6569 27.1904 31.9999C27.1904 29.3429 29.3431 27.1902 32.0001 27.1902C34.6473 27.1902 36.8098 29.3429 36.8098 31.9999C36.8098 34.6569 34.6473 36.8096 32.0001 36.8096Z" fill="#E60094"/>
<path d="M2.87988 32.2621C2.87988 48.33 15.9417 61.3918 31.9999 61.3918C33.4544 61.3918 34.8993 61.2852 36.3053 61.0718L36.509 62.187C36.5769 62.5458 36.8193 62.8367 37.1587 62.9627L37.7308 63.147L46.0217 56.9118C46.3417 56.6791 46.4872 56.3009 46.429 55.913L46.2835 55.273L36.2569 52.3639C35.9078 52.267 35.5393 52.3445 35.2678 52.587L34.8411 53.0136L35.2193 55.1082C34.1526 55.2536 33.0762 55.3312 31.9999 55.3312C19.2872 55.3312 8.94049 44.9845 8.94049 32.2621C8.94049 31.6415 8.96958 31.0112 9.01806 30.4003L7.07867 30.2452C7.03019 30.9045 7.00109 31.5833 7.00109 32.2621C7.00109 46.0512 18.2205 57.2706 31.9999 57.2706C33.5029 57.2706 35.0253 57.1349 36.5187 56.8633L37.4787 56.6888L37.1005 54.6233L43.4035 56.4464L38.1575 60.393L37.8762 58.8124L36.9162 58.987C35.3259 59.2876 33.6775 59.433 32.0096 59.433C17.0181 59.433 4.82897 47.2342 4.82897 32.2427C4.82897 31.6221 4.84837 30.9918 4.89685 30.3712L2.95746 30.2355C2.89928 30.9142 2.87988 31.593 2.87988 32.2621Z" fill="#E60094"/>
<path d="M5.53711 20.0829L7.30196 20.8974C7.84499 19.7144 8.48499 18.5507 9.20256 17.455L7.57347 16.3883C6.80741 17.5713 6.12862 18.8125 5.53711 20.0829Z" fill="#E60094"/>
<path d="M3.33594 27.1129L5.24624 27.4523C5.47897 26.1626 5.79897 24.8826 6.21594 23.6414L4.37351 23.0305C3.92745 24.359 3.57836 25.7263 3.33594 27.1129Z" fill="#E60094"/>
<path d="M10.9483 15.0595C11.3362 14.5844 11.7532 14.1092 12.1799 13.6535L10.7641 12.325C10.3083 12.8098 9.86228 13.3238 9.44531 13.828L10.9483 15.0595Z" fill="#E60094"/>
<path d="M13.9639 17.8816C14.3518 17.3968 14.7591 16.9216 15.1857 16.4756L13.77 15.1471C13.3142 15.6319 12.8681 16.1459 12.4512 16.6695L13.9639 17.8816Z" fill="#E60094"/>
<path d="M11.0257 22.6518C11.4717 21.6821 11.9857 20.7318 12.5675 19.83L10.9384 18.7827C10.3081 19.7621 9.75536 20.79 9.27051 21.8372L11.0257 22.6518Z" fill="#E60094"/>
<path d="M7.41797 27.6458L9.32827 28.0046C9.52221 26.9573 9.79373 25.91 10.1331 24.9015L8.2907 24.2809C7.93191 25.3767 7.6313 26.5112 7.41797 27.6458Z" fill="#E60094"/>
<path d="M61.1199 32.2619C61.1199 16.2037 48.0581 3.13217 31.9999 3.13217C31.0206 3.13217 30.0412 3.18066 29.0812 3.27763L28.8969 1.87157C28.8484 1.51278 28.6254 1.21217 28.286 1.05702L27.7236 0.843689L19.1515 6.65217C18.8218 6.8752 18.6472 7.25339 18.7054 7.65096L18.8315 8.30066L28.6642 11.6946C29.0036 11.811 29.3818 11.7528 29.663 11.5201L30.109 11.1128L29.8666 9.27036C30.5745 9.20248 31.2824 9.17339 31.9903 9.17339C44.703 9.17339 55.0496 19.5201 55.0496 32.2328C55.0496 32.6982 55.0399 33.1637 55.0109 33.6291L56.9502 33.7455C56.9793 33.2413 56.989 32.737 56.989 32.2328C56.9987 18.4728 45.789 7.25339 31.9999 7.25339C30.8848 7.25339 29.7599 7.33096 28.6545 7.47642L27.7042 7.60248L27.9369 9.39642L21.7309 7.25339L27.1709 3.56854L27.4133 5.43036L28.383 5.3043C29.566 5.14914 30.7878 5.06187 32.0096 5.06187C47.0012 5.06187 59.1903 17.2607 59.1903 32.2425C59.1903 32.8728 59.1709 33.5031 59.1321 34.114L61.0715 34.2401C61.1006 33.6001 61.1199 32.931 61.1199 32.2619Z" fill="#E60094"/>
<path d="M59.0737 43.0348L57.2701 42.3172C56.8531 43.3548 56.3683 44.3827 55.835 45.3621L57.5319 46.3027C58.1137 45.2457 58.6374 44.1403 59.0737 43.0348Z" fill="#E60094"/>
<path d="M60.7518 36.9548L58.8415 36.6445C58.6669 37.75 58.4148 38.8554 58.1045 39.9318L59.9663 40.4748C60.296 39.3209 60.5578 38.1378 60.7518 36.9548Z" fill="#E60094"/>
<path d="M56.1156 48.6013L54.5059 47.5153C54.1568 48.0292 53.7883 48.5431 53.4004 49.028L54.9228 50.2207C55.3398 49.6971 55.7374 49.154 56.1156 48.6013Z" fill="#E60094"/>
<path d="M50.1621 46.4772L51.6845 47.6699C51.9948 47.2724 52.2954 46.8651 52.5863 46.4578L50.996 45.3524C50.7245 45.7402 50.453 46.1087 50.1621 46.4772Z" fill="#E60094"/>
<path d="M55.175 41.6968L53.381 40.9695C53.0707 41.7355 52.712 42.5016 52.3047 43.2289L54.0113 44.1598C54.438 43.3549 54.8356 42.521 55.175 41.6968Z" fill="#E60094"/>
<path d="M56.6593 36.4705L54.749 36.1505C54.6133 36.9748 54.429 37.799 54.1963 38.5942L56.0581 39.1178C56.3005 38.2548 56.5042 37.3724 56.6593 36.4705Z" fill="#E60094"/>
</svg>
