<svg width="64" height="64" viewBox="0 0 64 64" fill="none" xmlns="http://www.w3.org/2000/svg">
<path d="M15.9512 2.00049C15.3914 2.05151 15.0032 2.48223 15.0039 2.99658V6.99849C15.0059 7.54807 15.4504 7.99265 16 7.99458H17.0039V9.99853H14C13.4477 9.99861 13.0001 10.4463 13 10.9986V34.9986C13.0001 35.5508 13.4477 35.9986 14 35.9986H22.9981V39.9946H18.9961V39.0844C18.9961 37.6336 17.0039 37.6336 17.0039 39.0844V41.0005C17.0059 41.5501 17.4504 41.9947 18 41.9966H24.002C24.5515 41.9946 24.9961 41.5501 24.9981 41.0005V35.9986H28C28.5523 35.9986 28.9999 35.5508 29 34.9986V29.9204C32.3837 29.4318 35 26.5095 35 22.9946C35 22.6556 34.9689 22.325 34.9219 21.9985H38C45.7733 21.9985 52 28.2253 52 35.9986C52 42.3751 47.7938 47.6966 42.0039 49.4107L41.0195 47.6059C46.1911 46.2691 50 41.5856 50 35.9986C50 29.3679 44.6307 23.9985 38 23.9985C36.6477 23.9796 36.6477 26.0176 38 25.9986C43.5573 25.9986 48 30.4413 48 35.9986C48 40.8586 44.591 44.8563 40.0273 45.7876C38.6093 42.8704 36.8623 41.9966 35 41.9966H28.002C27.4466 41.9946 26.9959 42.4452 26.9981 43.0005V45.9966H13.002C12.4466 45.9945 11.9959 46.4452 11.9981 47.0005V51.0024C12.0001 51.5548 12.4495 52.0006 13.002 51.9985H24.002C25.3356 51.9985 25.3356 49.9986 24.002 49.9986H13.9981V47.9966H26.9981V56.0005H11.002C10.4497 55.9985 10.0003 56.4443 9.99805 56.9966V60.9965C9.99605 61.5518 10.4466 62.0026 11.002 62.0005H52.998C53.5534 62.0025 54.0041 61.5518 54.0019 60.9965V56.9966C54 56.4443 53.5503 55.9984 52.998 56.0005H45.5996L42.9863 51.2114C49.3942 49.1226 54 43.1053 54 35.9986C54 27.1519 46.8467 19.9986 38 19.9986H34.3145C33.1874 17.6389 30.7832 15.9966 28.002 15.9966C24.1478 15.9966 20.9961 19.1404 20.9961 22.9946C20.9961 26.5074 23.6182 29.4272 27 29.9184V33.9986H15V11.9986H27V12.9985C26.9809 14.3507 29.0191 14.3507 29 12.9985V10.9986C29 10.4463 28.5523 9.99861 28 9.99853H24.9981V7.99458H26.002C26.5515 7.99258 26.9961 7.54807 26.9981 6.99849V2.99658C26.9961 2.447 26.5515 2.00245 26.002 2.00049H15.9512ZM17.0039 4.00248H24.9981V6.0024H17.0039V4.00248ZM18.9961 7.99458H22.9981V9.99853H18.9961V7.99458ZM28.002 17.9966C30.7752 17.9966 33 20.2213 33 22.9946C33 25.7679 30.7752 28.0005 28.002 28.0005C25.2287 28.0005 22.9981 25.7679 22.9981 22.9946C22.9981 20.2213 25.2287 17.9966 28.002 17.9966ZM28.002 19.9986C26.3569 19.9986 24.9981 21.3496 24.9981 22.9946C24.9981 24.6396 26.3569 26.0005 28.002 26.0005C29.647 26.0005 31 24.6396 31 22.9946C31 21.3496 29.647 19.9986 28.002 19.9986ZM28.002 21.9985C28.5661 21.9985 28.9981 22.4305 28.9981 22.9946C28.9981 23.5588 28.5661 23.9985 28.002 23.9985C27.4378 23.9985 26.9981 23.5588 26.9981 22.9946C26.9981 22.4305 27.4378 21.9985 28.002 21.9985ZM28.9981 43.9966H35C36.7309 43.9966 37.4824 45.3031 38.1231 46.4771L43.3203 56.0005H28.9981V43.9966ZM33.9961 45.9966C32.3511 45.9966 31 47.3574 31 49.0025C31 50.6475 32.3511 51.9985 33.9961 51.9985C35.6411 51.9985 37.002 50.6475 37.002 49.0025C37.002 47.3574 35.6411 45.9966 33.9961 45.9966ZM33.9961 47.9966C34.5602 47.9966 35 48.4383 35 49.0025C35 49.5666 34.5602 49.9986 33.9961 49.9986C33.432 49.9986 33 49.5666 33 49.0025C33 48.4383 33.432 47.9966 33.9961 47.9966ZM11.9981 58.0005H52.0019V60.0005H11.9981V58.0005Z" fill="#E60094"/>
</svg>
