<svg width="64" height="64" viewBox="0 0 64 64" fill="none" xmlns="http://www.w3.org/2000/svg">
<path d="M7.99984 0H41.9857L59.9998 17.9441V60C59.9998 62.21 58.2079 64 55.9998 64H7.99984C5.79178 64 3.99988 62.21 3.99988 60V3.99996C3.99988 1.79004 5.79199 0 7.99984 0Z" fill="#E60094"/>
<path d="M59.9421 17.9999H46C43.792 17.9999 42.0001 16.208 42.0001 13.9999V0.039917L59.9421 17.9999Z" fill="#AF0C6E"/>
<path d="M44.9959 30.3259C45.666 30.3259 45.994 29.7419 45.994 29.176C45.994 28.5899 45.6519 28.0239 44.9959 28.0239H41.1799C40.4339 28.0239 40.0179 28.6419 40.0179 29.3239V38.7019C40.0179 39.5379 40.4939 40.0019 41.1379 40.0019C41.778 40.0019 42.256 39.5379 42.256 38.7019V36.1279H44.564C45.28 36.1279 45.638 35.5419 45.638 34.96C45.638 34.39 45.28 33.8239 44.564 33.8239H42.256V30.3259H44.9959ZM32.0979 28.0239H29.3058C28.5478 28.0239 28.0098 28.544 28.0098 29.3159V38.7099C28.0098 39.6679 28.7837 39.9679 29.3377 39.9679H32.2678C35.7357 39.9679 38.0257 37.686 38.0257 34.1639C38.0238 30.44 35.8679 28.0239 32.0979 28.0239ZM32.232 37.6521H30.5299V30.34H32.0639C34.386 30.34 35.3959 31.8981 35.3959 34.048C35.3959 36.0601 34.4038 37.6521 32.232 37.6521ZM22.0039 28.0239H19.238C18.4559 28.0239 18.0199 28.5398 18.0199 29.3239V38.7019C18.0199 39.5379 18.5199 40.0019 19.1918 40.0019C19.8637 40.0019 20.3637 39.5379 20.3637 38.7019V35.9638H22.0977C24.2376 35.9638 26.0037 34.4478 26.0037 32.0098C26.0039 29.624 24.2999 28.0239 22.0039 28.0239ZM21.958 33.7641H20.3639V30.226H21.958C22.942 30.226 23.568 30.9939 23.568 31.9959C23.5659 32.9961 22.942 33.7641 21.958 33.7641Z" fill="white"/>
</svg>
