<svg width="64" height="64" viewBox="0 0 64 64" fill="none" xmlns="http://www.w3.org/2000/svg">
<path d="M10.0001 2.00073C8.35537 2.00073 7.00398 3.35204 7.00398 4.99674C7.03327 6.30049 8.97471 6.30049 9.00398 4.99674C9.00398 4.42547 9.42876 4.00065 10.0001 4.00065H54.004C54.5753 4.00065 55.0001 4.42543 55.0001 4.99674V55.0027C54.9695 56.3663 57.0307 56.3663 57.0001 55.0027V4.99674C57.0001 3.35204 55.6487 2.00073 54.004 2.00073H10.0001ZM7.98445 7.98698C7.43524 7.99832 6.99749 8.44948 7.00398 8.99876V58.9948C7.00398 60.6395 8.35537 62.0007 10.0001 62.0007H54.004C55.6487 62.0007 57.0001 60.6395 57.0001 58.9948C56.9706 57.6911 55.0293 57.6911 55.0001 58.9948C55.0001 59.5661 54.5753 60.0007 54.004 60.0007H10.0001C9.42876 60.0007 9.00398 59.5661 9.00398 58.9948V8.99876C9.01097 8.43418 8.54895 7.97595 7.98445 7.98698ZM31.002 8.99876V55.0027C31.0311 56.3064 32.9727 56.3064 33.002 55.0027V8.99876C33.002 7.63855 31.002 7.70171 31.002 8.99876ZM19.2637 9.32299L14.3262 14.2625C12.5618 16.027 12.5617 18.9121 14.3262 20.6766C16.0907 22.4411 18.9758 22.4411 20.7403 20.6766L25.6798 15.7372C27.4443 13.9726 27.4661 11.109 25.6798 9.32299C23.8526 7.49619 20.9928 7.59329 19.2637 9.32299ZM43.2637 9.32299L38.3243 14.2625C36.5598 16.027 36.5598 18.9121 38.3243 20.6766C40.0888 22.4411 42.9738 22.4411 44.7383 20.6766L49.6778 15.7372C51.4755 13.9394 51.4381 11.0338 49.6778 9.32299C47.7416 7.44124 44.934 7.65278 43.2637 9.32299ZM24.2618 10.7332C25.275 11.7565 25.2673 13.3156 24.2618 14.3211L22.502 16.0809L18.9122 12.4969L20.6739 10.7332C21.6779 9.72807 23.2952 9.75683 24.2618 10.7332ZM48.2598 10.7332C49.2306 11.6496 49.2653 13.3156 48.2598 14.3211L46.5001 16.0809L42.9122 12.5008L44.6798 10.7332C45.7094 9.70351 47.2624 9.79149 48.2598 10.7332ZM41.502 13.9109L45.086 17.4949L43.3223 19.2586C42.3168 20.2641 40.7399 20.2641 39.7344 19.2586C38.7289 18.2531 38.729 16.684 39.7344 15.6785L41.502 13.9109ZM17.4981 13.9129L21.084 17.4989L19.3243 19.2587C18.3188 20.2642 16.7419 20.2641 15.7364 19.2587C14.7309 18.2532 14.7309 16.684 15.7364 15.6786L17.4981 13.9129ZM19.2637 26.323L14.3262 31.2625C12.5618 33.0271 12.5617 35.9121 14.3262 37.6766C16.0907 39.4411 18.9758 39.4411 20.7403 37.6766L25.6798 32.739C27.4443 30.9745 27.4789 28.1222 25.6798 26.323C23.8528 24.4961 20.9965 24.5896 19.2637 26.323ZM43.2637 26.323L38.3243 31.2625C36.5598 33.0271 36.5598 35.9121 38.3243 37.6766C40.0888 39.4411 42.9738 39.4411 44.7383 37.6766L49.6778 32.739C51.4423 30.9745 51.4718 28.117 49.6778 26.323C47.8508 24.4961 45.003 24.5838 43.2637 26.323ZM24.2618 27.7333C25.2527 28.7243 25.2673 30.3156 24.2618 31.3211L22.502 33.0829L18.9122 29.4969L20.6739 27.7333C21.657 26.749 23.2903 26.7618 24.2618 27.7333ZM48.2598 27.7333C49.2774 28.7508 49.2653 30.3156 48.2598 31.3211L46.5001 33.0828L42.9122 29.4988L44.6798 27.7332C45.5692 26.8448 47.1615 26.635 48.2598 27.7333ZM41.5001 30.909L45.084 34.4989L43.3223 36.2605C42.3168 37.266 40.7399 37.266 39.7344 36.2605C38.7289 35.255 38.729 33.6782 39.7344 32.6727L41.5001 30.909ZM17.4962 30.9111L21.084 34.4989L19.3243 36.2607C18.3188 37.2662 16.7419 37.2662 15.7364 36.2607C14.7309 35.2552 14.7309 33.6782 15.7364 32.6727L17.4962 30.9111ZM19.2637 43.3387L14.3262 48.2781C12.5618 50.0427 12.5617 52.9278 14.3262 54.6923C16.0907 56.4568 18.9758 56.4569 20.7403 54.6923L25.6798 49.7548C27.4443 47.9902 27.4678 45.1268 25.6798 43.3387C23.8469 41.5058 20.9973 41.6045 19.2637 43.3387ZM43.2637 43.3387L38.3243 48.2781C36.5598 50.0427 36.5598 52.9278 38.3243 54.6923C40.0888 56.4568 42.9738 56.4569 44.7383 54.6923L49.6778 49.7548C51.4423 47.9902 51.4524 45.1133 49.6778 43.3387C47.8449 41.5058 44.9914 41.6111 43.2637 43.3387ZM24.2618 44.7489C25.2801 45.7672 25.2673 47.3313 24.2618 48.3369L22.502 50.0965L18.9141 46.5087L20.6739 44.7489C21.6901 43.7327 23.2903 43.7774 24.2618 44.7489ZM48.2598 44.7489C49.278 45.7671 49.2282 47.3684 48.2598 48.3369L46.5001 50.0965L42.9141 46.5106L44.6798 44.7489C45.6939 43.737 47.2899 43.779 48.2598 44.7489ZM41.5001 47.9247L45.0821 51.5145L43.3223 53.2743C42.3168 54.2798 40.7399 54.2798 39.7344 53.2743C38.7289 52.2688 38.729 50.6939 39.7344 49.6884L41.5001 47.9247ZM17.4962 47.9267L21.084 51.5145L19.3243 53.2743C18.3188 54.2798 16.7419 54.2798 15.7364 53.2743C14.7309 52.2688 14.7309 50.6939 15.7364 49.6884L17.4962 47.9267Z" fill="#E60094"/>
</svg>
