<svg width="64" height="64" viewBox="0 0 64 64" fill="none" xmlns="http://www.w3.org/2000/svg">
<path fill-rule="evenodd" clip-rule="evenodd" d="M32.0019 3.875C24.2632 3.875 17.998 10.1325 17.998 17.8712V33.5508C17.9678 34.914 20.0283 34.914 19.998 33.5508V17.8712C19.998 11.2059 25.3366 5.87699 32.0019 5.87699C38.6672 5.87699 43.9961 11.2059 43.9961 17.8712V33.5508C43.9961 34.8854 45.998 34.8854 45.998 33.5508V17.8712C45.998 10.1324 39.7406 3.875 32.0019 3.875ZM38.0039 31.5665V35.0013H38V35.2462C38.2658 35.2459 38.5211 35.3509 38.709 35.5391L40.709 37.5411C41.0143 37.8465 41.0892 38.3137 40.8945 38.6992L37.8965 44.7012C37.6345 45.2216 36.985 45.4086 36.4864 45.1074L33.0039 43.0216V58.2481H44.998V51.2383C44.998 49.9046 47 49.9046 47 51.2383V58.2481H52V50.2481C52 45.1016 48.5212 40.8256 43.7852 39.5996C42.4536 39.2896 42.9727 37.2881 44.2871 37.6642C49.8885 39.1141 54 44.1976 54 50.2481V59.2481C53.9999 59.8004 53.5523 60.248 53 60.2481H11C10.4478 60.248 10.0001 59.8004 10 59.2481V50.2481C10 44.1954 14.1161 39.1098 19.7207 37.6621C20.9921 37.3214 21.5154 39.2526 20.2207 39.5996C15.4819 40.8237 12 45.0996 12 50.2481V58.2481H17V51.2383C17 49.9047 19 49.9047 19 51.2383V58.2481H31.0022V43.0175L27.5178 45.1074C27.0191 45.4085 26.3695 45.2214 26.1076 44.7012L23.1037 38.6992C22.9102 38.3124 22.9873 37.8452 23.2949 37.541L25.2969 35.5391C25.4494 35.3868 25.6746 35.2612 25.9981 35.2461V35.0013H26V31.5685C24.1643 29.9209 23.0039 27.5371 23.0039 24.8771V18.8751C23.0018 18.3227 23.4475 17.8732 24 17.8712H30.0019C32.2415 17.8712 33.0488 15.5606 33.0488 15.5606C33.178 15.1677 33.5378 14.894 33.9511 14.8751C34.3998 14.8541 34.807 15.134 34.9472 15.5606C34.9472 15.5606 35.7754 17.8712 38.0039 17.8712H40.0039C40.5563 17.8731 41.0019 18.3227 41 18.8751V24.8771C41 27.5361 39.8383 29.919 38.0039 31.5665ZM27.9981 35.0013H28V32.9278C29.2066 33.5291 30.5625 33.875 32.0019 33.875C33.4407 33.875 34.7957 33.5285 36.0019 32.9278V35.0013H36V36.6114L32 39.9474L27.9981 36.6114V35.0013ZM34.0019 17.8769C34.7481 18.9035 36.0861 19.8711 38.0039 19.8711H38.9999V24.8771C38.9999 28.7723 35.8972 31.8751 32.0019 31.8751C28.1066 31.8751 25.0039 28.7723 25.0039 24.8771V19.8711H29.9999C31.9209 19.8711 33.2563 18.9046 34.0019 17.8769ZM26.0645 37.5997L30.2715 41.1133L27.4141 42.834L25.2149 38.4493L26.0645 37.5997ZM37.9414 37.5997L38.7832 38.4493L36.584 42.834L33.7266 41.1133L37.9414 37.5997ZM36 52.2519H42.002C43.3644 52.2822 43.3644 50.2226 42.002 50.252H35.9483C34.5927 50.3473 34.6934 52.2916 36 52.2519Z" fill="#E60094"/>
</svg>
